<svg width="16" height="16" viewBox="0 0 16 16" fill="none" xmlns="http://www.w3.org/2000/svg">
<g id="Bold / Essentional, UI / Add Circle">
<path id="Vector" fill-rule="evenodd" clip-rule="evenodd" d="M8.00065 14.6663C11.6826 14.6663 14.6673 11.6816 14.6673 7.99967C14.6673 4.31778 11.6826 1.33301 8.00065 1.33301C4.31875 1.33301 1.33398 4.31778 1.33398 7.99967C1.33398 11.6816 4.31875 14.6663 8.00065 14.6663ZM8.50065 5.99967C8.50065 5.72353 8.27679 5.49967 8.00065 5.49967C7.72451 5.49967 7.50065 5.72353 7.50065 5.99967L7.50065 7.49969H6.00065C5.72451 7.49969 5.50065 7.72355 5.50065 7.99969C5.50065 8.27583 5.72451 8.49969 6.00065 8.49969H7.50065V9.99967C7.50065 10.2758 7.72451 10.4997 8.00065 10.4997C8.27679 10.4997 8.50065 10.2758 8.50065 9.99967L8.50065 8.49969H10.0007C10.2768 8.49969 10.5007 8.27583 10.5007 7.99969C10.5007 7.72355 10.2768 7.49969 10.0007 7.49969H8.50065V5.99967Z" fill="black"/>
</g>
</svg>
