<svg width="20" height="20" viewBox="0 0 20 20" fill="none" xmlns="http://www.w3.org/2000/svg">
<g id="Outline / Essentional, UI / Add Circle">
<g id="Vector">
<path d="M10.625 7.49996C10.625 7.15478 10.3452 6.87496 10 6.87496C9.65484 6.87496 9.37502 7.15478 9.37502 7.49996L9.37502 9.37498H7.50002C7.15484 9.37498 6.87502 9.6548 6.87502 9.99998C6.87502 10.3452 7.15484 10.625 7.50002 10.625H9.37502V12.5C9.37502 12.8451 9.65484 13.125 10 13.125C10.3452 13.125 10.625 12.8451 10.625 12.5L10.625 10.625H12.5C12.8452 10.625 13.125 10.3452 13.125 9.99998C13.125 9.6548 12.8452 9.37498 12.5 9.37498H10.625V7.49996Z" fill="#66605C"/>
<path fill-rule="evenodd" clip-rule="evenodd" d="M10 1.04163C5.05247 1.04163 1.04169 5.05241 1.04169 9.99996C1.04169 14.9475 5.05247 18.9583 10 18.9583C14.9476 18.9583 18.9584 14.9475 18.9584 9.99996C18.9584 5.05241 14.9476 1.04163 10 1.04163ZM2.29169 9.99996C2.29169 5.74276 5.74283 2.29163 10 2.29163C14.2572 2.29163 17.7084 5.74276 17.7084 9.99996C17.7084 14.2572 14.2572 17.7083 10 17.7083C5.74283 17.7083 2.29169 14.2572 2.29169 9.99996Z" fill="#66605C"/>
</g>
</g>
</svg>
