<svg xmlns="http://www.w3.org/2000/svg" width="21" height="20" viewBox="0 0 21 20" fill="none">
  <path fill-rule="evenodd" clip-rule="evenodd" d="M2.25 5.8335C2.25 5.48832 2.52982 5.2085 2.875 5.2085H11.2083C11.5535 5.2085 11.8333 5.48832 11.8333 5.8335C11.8333 6.17867 11.5535 6.4585 11.2083 6.4585H2.875C2.52982 6.4585 2.25 6.17867 2.25 5.8335ZM14.125 5.2085C14.3709 5.2085 14.594 5.35274 14.695 5.57702L18.445 13.9104C18.5866 14.2251 18.4463 14.5951 18.1315 14.7368C17.8167 14.8784 17.4467 14.7381 17.305 14.4233L16.1072 11.7615H12.1428L10.945 14.4233C10.8033 14.7381 10.4333 14.8784 10.1185 14.7368C9.80375 14.5951 9.6634 14.2251 9.80505 13.9104L13.555 5.57702C13.656 5.35274 13.8791 5.2085 14.125 5.2085ZM12.7053 10.5115H15.5447L14.125 7.35653L12.7053 10.5115ZM2.25 10.0002C2.25 9.65498 2.52982 9.37516 2.875 9.37516H8.70833C9.05351 9.37516 9.33333 9.65498 9.33333 10.0002C9.33333 10.3453 9.05351 10.6252 8.70833 10.6252H2.875C2.52982 10.6252 2.25 10.3453 2.25 10.0002ZM2.25 14.1668C2.25 13.8217 2.52982 13.5418 2.875 13.5418H7.04167C7.38685 13.5418 7.66667 13.8217 7.66667 14.1668C7.66667 14.512 7.38685 14.7918 7.04167 14.7918H2.875C2.52982 14.7918 2.25 14.512 2.25 14.1668Z" fill="#66605C"/>
</svg>