<svg width="21" height="20" viewBox="0 0 21 20" fill="none" xmlns="http://www.w3.org/2000/svg">
<g id="Outline / Notifications / Bell ">
<path id="Vector" fill-rule="evenodd" clip-rule="evenodd" d="M10.6249 1.04175C7.05803 1.04175 4.16654 3.93324 4.16654 7.50008V8.08683C4.16654 8.6676 3.99463 9.23537 3.67248 9.7186L2.71531 11.1544C1.60439 12.8207 2.45248 15.0857 4.38464 15.6127C5.01432 15.7844 5.64931 15.9297 6.28799 16.0485L6.28957 16.0528C6.9304 17.7627 8.64316 18.9584 10.6248 18.9584C12.6065 18.9584 14.3192 17.7627 14.9601 16.0528L14.9616 16.0485C15.6003 15.9297 16.2354 15.7844 16.8651 15.6127C18.7973 15.0857 19.6453 12.8207 18.5344 11.1544L17.5773 9.7186C17.2551 9.23538 17.0832 8.6676 17.0832 8.08683V7.50008C17.0832 3.93324 14.1917 1.04175 10.6249 1.04175ZM13.4385 16.2809C11.5694 16.5042 9.68021 16.5042 7.81108 16.2809C8.40354 17.1321 9.43401 17.7084 10.6248 17.7084C11.8156 17.7084 12.8461 17.1322 13.4385 16.2809ZM5.41654 7.50008C5.41654 4.6236 7.74839 2.29175 10.6249 2.29175C13.5014 2.29175 15.8332 4.6236 15.8332 7.50008V8.08683C15.8332 8.91438 16.0782 9.72342 16.5372 10.412L17.4944 11.8477C18.132 12.8042 17.6452 14.1043 16.5362 14.4067C12.666 15.4623 8.58375 15.4623 4.71354 14.4067C3.60451 14.1043 3.11773 12.8042 3.75537 11.8477L4.71254 10.412C5.17158 9.72342 5.41654 8.91438 5.41654 8.08683V7.50008Z" fill="black"/>
</g>
</svg>
