<svg width="17" height="16" viewBox="0 0 17 16" fill="none" xmlns="http://www.w3.org/2000/svg">
<g id="Outline / Essentional, UI / Box">
<path id="Vector" fill-rule="evenodd" clip-rule="evenodd" d="M8.50065 0.833496C8.0975 0.833496 7.72628 0.933687 7.31984 1.10178C6.92737 1.26408 6.47153 1.5033 5.90392 1.80118L4.52558 2.5245C3.82893 2.89008 3.27142 3.18264 2.84097 3.4701C2.39501 3.76792 2.05153 4.0815 1.8014 4.50628C1.5521 4.92964 1.43996 5.38806 1.38618 5.93398C1.33397 6.46388 1.33398 7.1156 1.33398 7.93521V8.06511C1.33398 8.88472 1.33397 9.53644 1.38618 10.0663C1.43996 10.6123 1.55211 11.0707 1.8014 11.494C2.05153 11.9188 2.39501 12.2324 2.84097 12.5302C3.27142 12.8177 3.82892 13.1102 4.52556 13.4758L5.90386 14.1991C6.4715 14.497 6.92736 14.7362 7.31984 14.8985C7.72628 15.0666 8.0975 15.1668 8.50065 15.1668C8.9038 15.1668 9.27502 15.0666 9.68147 14.8985C10.0739 14.7362 10.5298 14.497 11.0974 14.1992L12.4757 13.4758C13.1724 13.1103 13.7299 12.8177 14.1603 12.5302C14.6063 12.2324 14.9498 11.9188 15.1999 11.494C15.4492 11.0707 15.5613 10.6123 15.6151 10.0663C15.6673 9.53645 15.6673 8.88474 15.6673 8.06513V7.9352C15.6673 7.11559 15.6673 6.46388 15.6151 5.93398C15.5613 5.38806 15.4492 4.92964 15.1999 4.50628C14.9498 4.0815 14.6063 3.76792 14.1603 3.4701C13.7299 3.18264 13.1724 2.89008 12.4757 2.5245L11.0974 1.80119C10.5298 1.50331 10.0739 1.26409 9.68147 1.10178C9.27502 0.933687 8.9038 0.833496 8.50065 0.833496ZM6.34785 2.69755C6.941 2.38628 7.35665 2.16869 7.702 2.02587C8.03814 1.88686 8.27429 1.8335 8.50065 1.8335C8.72701 1.8335 8.96316 1.88686 9.2993 2.02587C9.64465 2.16869 10.0603 2.38628 10.6535 2.69755L11.9868 3.39725C12.7132 3.77848 13.2236 4.04705 13.605 4.30171C13.7931 4.42735 13.9409 4.54402 14.0603 4.66132L11.8398 5.77155L6.17328 2.78916L6.34785 2.69755ZM5.13043 3.33642L5.01452 3.39725C4.28806 3.77848 3.77767 4.04704 3.39633 4.30171C3.20819 4.42735 3.06036 4.54402 2.94101 4.66133L8.50065 7.44115L10.7388 6.32209L5.26778 3.44262C5.21462 3.41465 5.16859 3.37845 5.13043 3.33642ZM2.45911 5.53841C2.42544 5.681 2.39999 5.84291 2.38136 6.03202C2.33455 6.50723 2.33398 7.10977 2.33398 7.96117V8.03916C2.33398 8.89056 2.33455 9.4931 2.38136 9.96831C2.42715 10.4331 2.51413 10.7336 2.6631 10.9866C2.81123 11.2382 3.0255 11.451 3.39633 11.6986C3.77767 11.9533 4.28806 12.2218 5.01452 12.6031L6.34785 13.3028C6.941 13.614 7.35665 13.8316 7.702 13.9745C7.81105 14.0196 7.90957 14.0556 8.00065 14.0838V8.30918L2.45911 5.53841ZM9.00065 14.0838C9.09173 14.0556 9.19025 14.0196 9.2993 13.9745C9.64465 13.8316 10.0603 13.614 10.6535 13.3028L11.9868 12.6031C12.7132 12.2218 13.2236 11.9533 13.605 11.6986C13.9758 11.451 14.1901 11.2382 14.3382 10.9866C14.4872 10.7336 14.5742 10.4331 14.6199 9.96831C14.6668 9.4931 14.6673 8.89056 14.6673 8.03916V7.96117C14.6673 7.10977 14.6668 6.50723 14.6199 6.03202C14.6013 5.84291 14.5759 5.68099 14.5422 5.53841L12.334 6.64251V8.66683C12.334 8.94297 12.1101 9.16683 11.834 9.16683C11.5578 9.16683 11.334 8.94297 11.334 8.66683V7.14251L9.00065 8.30918V14.0838Z" fill="black"/>
</g>
</svg>
