<svg width="17" height="17" viewBox="0 0 17 17" fill="none" xmlns="http://www.w3.org/2000/svg">
<g id="Outline / Money / Card">
<path id="Vector (Stroke)" fill-rule="evenodd" clip-rule="evenodd" d="M7.25471 2.73242H9.9966C11.2218 2.73241 12.1922 2.7324 12.9517 2.83451C13.7333 2.9396 14.3659 3.16101 14.8648 3.65992C15.3637 4.15883 15.5851 4.79146 15.6902 5.57307C15.7505 6.02165 15.7752 6.54382 15.7853 7.14861C15.7899 7.17586 15.7923 7.20386 15.7923 7.23242C15.7923 7.25592 15.7907 7.27905 15.7876 7.30169C15.7923 7.67884 15.7923 8.08698 15.7923 8.52815V8.60336C15.7923 9.82854 15.7923 10.799 15.6902 11.5584C15.5851 12.3401 15.3637 12.9727 14.8648 13.4716C14.3659 13.9705 13.7333 14.1919 12.9517 14.297C12.1922 14.3991 11.2218 14.3991 9.99659 14.3991H7.25471C6.02954 14.3991 5.05911 14.3991 4.29964 14.297C3.51802 14.1919 2.88539 13.9705 2.38648 13.4716C1.88757 12.9727 1.66616 12.3401 1.56107 11.5584C1.45897 10.799 1.45897 9.82854 1.45898 8.60337V8.52814C1.45898 8.08697 1.45898 7.67883 1.46374 7.30167C1.46061 7.27904 1.45898 7.25592 1.45898 7.23242C1.45898 7.20386 1.46138 7.17587 1.46598 7.14862C1.47608 6.54383 1.50076 6.02166 1.56107 5.57307C1.66616 4.79146 1.88757 4.15883 2.38648 3.65992C2.88539 3.16101 3.51802 2.9396 4.29964 2.83451C5.05911 2.7324 6.02953 2.73241 7.25471 2.73242ZM2.46031 7.73242C2.45904 7.99135 2.45898 8.26849 2.45898 8.56576C2.45898 9.83697 2.46005 10.7401 2.55216 11.4252C2.64233 12.0959 2.81145 12.4823 3.09359 12.7645C3.37573 13.0466 3.76216 13.2157 4.43288 13.3059C5.11799 13.398 6.0211 13.3991 7.29232 13.3991H9.95899C11.2302 13.3991 12.1333 13.398 12.8184 13.3059C13.4891 13.2157 13.8756 13.0466 14.1577 12.7645C14.4399 12.4823 14.609 12.0959 14.6991 11.4252C14.7913 10.7401 14.7923 9.83697 14.7923 8.56576C14.7923 8.26849 14.7923 7.99135 14.791 7.73242H2.46031ZM14.7749 6.73242H2.47637C2.48941 6.34127 2.51223 6.00331 2.55216 5.70632C2.64233 5.0356 2.81145 4.64916 3.09359 4.36702C3.37573 4.08488 3.76216 3.91577 4.43288 3.82559C5.11799 3.73348 6.0211 3.73242 7.29232 3.73242H9.95899C11.2302 3.73242 12.1333 3.73348 12.8184 3.82559C13.4891 3.91577 13.8756 4.08488 14.1577 4.36702C14.4399 4.64916 14.609 5.0356 14.6991 5.70632C14.7391 6.00331 14.7619 6.34127 14.7749 6.73242ZM4.12565 11.2324C4.12565 10.9563 4.34951 10.7324 4.62565 10.7324H7.29232C7.56846 10.7324 7.79232 10.9563 7.79232 11.2324C7.79232 11.5086 7.56846 11.7324 7.29232 11.7324H4.62565C4.34951 11.7324 4.12565 11.5086 4.12565 11.2324ZM8.45899 11.2324C8.45899 10.9563 8.68284 10.7324 8.95899 10.7324H9.95899C10.2351 10.7324 10.459 10.9563 10.459 11.2324C10.459 11.5086 10.2351 11.7324 9.95899 11.7324H8.95899C8.68284 11.7324 8.45899 11.5086 8.45899 11.2324Z" fill="#A7A19D"/>
</g>
</svg>
