<svg width="17" height="17" viewBox="0 0 17 17" fill="none" xmlns="http://www.w3.org/2000/svg">
<g id="Outline / Essentional, UI / Trash Bin 2">
<g id="Vector">
<path fill-rule="evenodd" clip-rule="evenodd" d="M4.03689 5.73274C4.31242 5.71437 4.55068 5.92284 4.56904 6.19837L4.87567 10.7978C4.93558 11.6964 4.97826 12.3216 5.07197 12.792C5.16287 13.2483 5.28976 13.4898 5.47204 13.6603C5.65431 13.8309 5.90375 13.9414 6.36509 14.0018C6.84069 14.064 7.46736 14.065 8.36792 14.065H8.88349C9.78406 14.065 10.4107 14.064 10.8863 14.0018C11.3477 13.9414 11.5971 13.8309 11.7794 13.6603C11.9617 13.4898 12.0885 13.2483 12.1794 12.792C12.2732 12.3216 12.3158 11.6964 12.3757 10.7978L12.6824 6.19837C12.7007 5.92284 12.939 5.71437 13.2145 5.73274C13.4901 5.75111 13.6985 5.98936 13.6802 6.26489L13.3712 10.8994C13.3142 11.7546 13.2682 12.4453 13.1602 12.9873C13.0479 13.5509 12.857 14.0216 12.4626 14.3906C12.0682 14.7596 11.5858 14.9188 11.016 14.9933C10.468 15.065 9.77571 15.065 8.91865 15.065H8.33276C7.4757 15.065 6.78341 15.065 6.23538 14.9933C5.66561 14.9188 5.18325 14.7596 4.78885 14.3906C4.39446 14.0216 4.20351 13.5509 4.09124 12.9873C3.98326 12.4453 3.93722 11.7545 3.88022 10.8994L3.57126 6.26489C3.55289 5.98936 3.76136 5.75111 4.03689 5.73274Z" fill="black"/>
<path fill-rule="evenodd" clip-rule="evenodd" d="M7.52922 2.06497L7.49856 2.06495C7.3543 2.06486 7.22862 2.06478 7.10994 2.08373C6.64107 2.1586 6.23534 2.45104 6.01604 2.87217C5.96053 2.97877 5.92086 3.09803 5.87533 3.23492L5.86565 3.264L5.80093 3.45817C5.78827 3.49615 5.78474 3.50662 5.78167 3.5151C5.66492 3.83785 5.36224 4.056 5.01914 4.0647C5.01012 4.06493 4.99907 4.06497 4.95904 4.06497H2.95898C2.68284 4.06497 2.45898 4.28882 2.45898 4.56497C2.45898 4.84111 2.68284 5.06497 2.95898 5.06497L4.96475 5.06497L4.97591 5.06497H12.2755L12.2867 5.06497L14.2924 5.06497C14.5685 5.06497 14.7924 4.84111 14.7924 4.56497C14.7924 4.28882 14.5685 4.06497 14.2924 4.06497H12.2924C12.2523 4.06497 12.2413 4.06493 12.2323 4.0647C11.8892 4.056 11.5865 3.83783 11.4697 3.51509C11.4667 3.50666 11.4631 3.49596 11.4505 3.45817L11.3858 3.264L11.3761 3.2349C11.3305 3.09802 11.2909 2.97876 11.2354 2.87217C11.0161 2.45104 10.6103 2.1586 10.1415 2.08373C10.0228 2.06478 9.89712 2.06486 9.75285 2.06495L9.7222 2.06497H7.52922ZM6.72204 3.85526C6.69586 3.92763 6.66543 3.99762 6.63108 4.06497H10.6203C10.586 3.99762 10.5556 3.92764 10.5294 3.85528L10.5036 3.77971L10.4371 3.58022C10.3763 3.39788 10.3623 3.3607 10.3484 3.33403C10.2753 3.19366 10.1401 3.09618 9.98379 3.07122C9.95411 3.06648 9.91441 3.06497 9.7222 3.06497H7.52922C7.337 3.06497 7.29731 3.06648 7.26762 3.07122C7.11133 3.09618 6.97609 3.19366 6.90299 3.33403C6.88911 3.36069 6.87511 3.39788 6.81433 3.58022L6.7478 3.77983C6.73778 3.80989 6.72998 3.83328 6.72204 3.85526Z" fill="black"/>
</g>
</g>
</svg>
