<svg width="20" height="21" viewBox="0 0 20 21" fill="none" xmlns="http://www.w3.org/2000/svg">
<g id="Outline / Money / Dollar Minimalistic">
<path id="Vector (Stroke)" fill-rule="evenodd" clip-rule="evenodd" d="M9.99935 2.79199C5.74215 2.79199 2.29102 6.24313 2.29102 10.5003C2.29102 14.7575 5.74215 18.2087 9.99935 18.2087C14.2565 18.2087 17.7077 14.7575 17.7077 10.5003C17.7077 6.24313 14.2565 2.79199 9.99935 2.79199ZM1.04102 10.5003C1.04102 5.55277 5.0518 1.54199 9.99935 1.54199C14.9469 1.54199 18.9577 5.55277 18.9577 10.5003C18.9577 15.4479 14.9469 19.4587 9.99935 19.4587C5.0518 19.4587 1.04102 15.4479 1.04102 10.5003ZM9.99935 4.87533C10.3445 4.87533 10.6243 5.15515 10.6243 5.50033V5.76427C11.983 6.00755 13.1243 7.02833 13.1243 8.41699C13.1243 8.76217 12.8445 9.04199 12.4993 9.04199C12.1542 9.04199 11.8743 8.76217 11.8743 8.41699C11.8743 7.71343 11.1464 6.95866 9.99935 6.95866C8.85228 6.95866 8.12435 7.71343 8.12435 8.41699C8.12435 9.12055 8.85228 9.87533 9.99935 9.87533C11.6137 9.87533 13.1243 10.986 13.1243 12.5837C13.1243 13.9723 11.983 14.9931 10.6243 15.2364V15.5003C10.6243 15.8455 10.3445 16.1253 9.99935 16.1253C9.65417 16.1253 9.37435 15.8455 9.37435 15.5003V15.2364C8.01566 14.9931 6.87435 13.9723 6.87435 12.5837C6.87435 12.2385 7.15417 11.9587 7.49935 11.9587C7.84453 11.9587 8.12435 12.2385 8.12435 12.5837C8.12435 13.2872 8.85228 14.042 9.99935 14.042C11.1464 14.042 11.8743 13.2872 11.8743 12.5837C11.8743 11.8801 11.1464 11.1253 9.99935 11.1253C8.385 11.1253 6.87435 10.0146 6.87435 8.41699C6.87435 7.02833 8.01566 6.00755 9.37435 5.76427V5.50033C9.37435 5.15515 9.65417 4.87533 9.99935 4.87533Z" fill="#66605C"/>
</g>
</svg>
