<svg width="20" height="20" viewBox="0 0 20 20" fill="none" xmlns="http://www.w3.org/2000/svg">
<g id="Outline / Messages, Conversation / Pen 2">
<path id="Vector" fill-rule="evenodd" clip-rule="evenodd" d="M11.7494 1.99266C13.0172 0.724778 15.0729 0.724778 16.3408 1.99266C17.6086 3.26054 17.6086 5.31618 16.3408 6.58406L10.0124 12.9124C9.65574 13.2691 9.43793 13.4869 9.19516 13.6763C8.90914 13.8994 8.59966 14.0907 8.2722 14.2467C7.99427 14.3792 7.70202 14.4766 7.22346 14.6361L4.99625 15.3785L4.46153 15.5567C3.98291 15.7163 3.45522 15.5917 3.09848 15.2349C2.74173 14.8782 2.61716 14.3505 2.7767 13.8719L3.69734 11.11C3.85683 10.6314 3.95423 10.3391 4.08669 10.0612C4.24275 9.73376 4.43402 9.42428 4.65711 9.13825C4.84646 8.89548 5.06431 8.67766 5.42102 8.32099L11.7494 1.99266ZM4.96742 14.0705L4.26295 13.366L4.86996 11.5449C5.0467 11.0147 5.1197 10.7992 5.21509 10.599C5.33209 10.3535 5.47549 10.1215 5.64275 9.90703C5.77912 9.73218 5.9393 9.57048 6.33449 9.17529L11.2436 4.26614C11.4463 4.77447 11.7891 5.38799 12.3673 5.96614C12.9454 6.54429 13.5589 6.88714 14.0673 7.08978L9.15812 11.9989C8.76293 12.3941 8.60123 12.5543 8.42639 12.6907C8.21195 12.8579 7.97993 13.0013 7.73443 13.1183C7.53426 13.2137 7.31868 13.2867 6.78847 13.4634L4.96742 14.0705ZM15.0633 6.09375C14.9601 6.0711 14.8311 6.03701 14.6844 5.98612C14.281 5.84618 13.7505 5.58157 13.2512 5.08226C12.7518 4.58295 12.4872 4.05238 12.3473 3.64903C12.2964 3.50233 12.2623 3.37331 12.2397 3.27012L12.6332 2.87654C13.413 2.09682 14.6771 2.09682 15.4569 2.87654C16.2366 3.65627 16.2366 4.92045 15.4569 5.70018L15.0633 6.09375ZM2.70833 18.3334C2.70833 17.9882 2.98815 17.7084 3.33333 17.7084H16.6667V18.9584H3.33333C2.98815 18.9584 2.70833 18.6786 2.70833 18.3334Z" fill="#66605C"/>
</g>
</svg>
