<svg width="20" height="21" viewBox="0 0 20 21" fill="none" xmlns="http://www.w3.org/2000/svg">
<g id="Outline / Messages, Conversation  /  Letter">
<path id="Vector" fill-rule="evenodd" clip-rule="evenodd" d="M8.28664 3.2085H11.714C13.2455 3.20848 14.4585 3.20847 15.4078 3.33611C16.3849 3.46747 17.1757 3.74423 17.7993 4.36787C18.4229 4.9915 18.6997 5.78229 18.831 6.75931C18.9587 7.70866 18.9587 8.92169 18.9587 10.4532V10.5472C18.9587 12.0786 18.9587 13.2917 18.831 14.241C18.6997 15.218 18.4229 16.0088 17.7993 16.6325C17.1757 17.2561 16.3849 17.5329 15.4078 17.6642C14.4585 17.7919 13.2455 17.7918 11.714 17.7918H8.28665C6.75518 17.7918 5.54215 17.7919 4.59281 17.6642C3.61579 17.5329 2.825 17.2561 2.20136 16.6325C1.57773 16.0088 1.30096 15.218 1.1696 14.241C1.04197 13.2917 1.04198 12.0786 1.04199 10.5472V10.4531C1.04198 8.92168 1.04197 7.70866 1.1696 6.75931C1.30096 5.78229 1.57773 4.9915 2.20136 4.36787C2.825 3.74423 3.61579 3.46747 4.59281 3.33611C5.54215 3.20847 6.75518 3.20848 8.28664 3.2085ZM4.75937 4.57496C3.92096 4.68768 3.43792 4.89907 3.08525 5.25175C2.73257 5.60442 2.52118 6.08746 2.40846 6.92587C2.29332 7.78226 2.29199 8.91115 2.29199 10.5002C2.29199 12.0892 2.29332 13.2181 2.40846 14.0745C2.52118 14.9129 2.73257 15.3959 3.08525 15.7486C3.43792 16.1013 3.92096 16.3126 4.75937 16.4254C5.61575 16.5405 6.74464 16.5418 8.33366 16.5418H11.667C13.256 16.5418 14.3849 16.5405 15.2413 16.4254C16.0797 16.3126 16.5627 16.1013 16.9154 15.7486C17.2681 15.3959 17.4795 14.9129 17.5922 14.0745C17.7073 13.2181 17.7087 12.0892 17.7087 10.5002C17.7087 8.91115 17.7073 7.78226 17.5922 6.92587C17.4795 6.08746 17.2681 5.60442 16.9154 5.25175C16.5627 4.89907 16.0797 4.68768 15.2413 4.57496C14.3849 4.45982 13.256 4.4585 11.667 4.4585H8.33366C6.74464 4.4585 5.61575 4.45982 4.75937 4.57496ZM4.52019 6.76671C4.74117 6.50154 5.13527 6.46571 5.40044 6.68669L7.19952 8.18592C7.97699 8.83381 8.51677 9.28218 8.97248 9.57527C9.41361 9.85899 9.71277 9.95423 10.0003 9.95423C10.2879 9.95423 10.587 9.85899 11.0282 9.57527C11.4839 9.28218 12.0237 8.83381 12.8011 8.18592L14.6002 6.68669C14.8654 6.46571 15.2595 6.50154 15.4805 6.76671C15.7014 7.03189 15.6656 7.42599 15.4004 7.64697L13.57 9.17231C12.8314 9.78785 12.2327 10.2868 11.7043 10.6266C11.1539 10.9806 10.6179 11.2042 10.0003 11.2042C9.38276 11.2042 8.84672 10.9806 8.29631 10.6266C7.76792 10.2868 7.16925 9.78786 6.43063 9.17232L4.60021 7.64697C4.33504 7.42599 4.29921 7.03189 4.52019 6.76671Z" fill="black"/>
</g>
</svg>
