<svg xmlns="http://www.w3.org/2000/svg" width="21" height="20" viewBox="0 0 21 20" fill="none">
  <path fill-rule="evenodd" clip-rule="evenodd" d="M14.5423 2.7085C14.8875 2.7085 15.1673 2.98832 15.1673 3.3335V14.7918L16.5423 12.9585C16.7494 12.6824 17.1412 12.6264 17.4173 12.8335C17.6935 13.0406 17.7494 13.4324 17.5423 13.7085L15.0423 17.0418C14.8809 17.257 14.5999 17.3448 14.3447 17.2598C14.0895 17.1747 13.9173 16.9358 13.9173 16.6668V3.3335C13.9173 2.98832 14.1971 2.7085 14.5423 2.7085ZM6.41732 5.00016C6.41732 4.65498 6.69714 4.37516 7.04232 4.37516H11.209C11.5542 4.37516 11.834 4.65498 11.834 5.00016C11.834 5.34534 11.5542 5.62516 11.209 5.62516H7.04232C6.69714 5.62516 6.41732 5.34534 6.41732 5.00016ZM4.75065 9.16683C4.75065 8.82165 5.03047 8.54183 5.37565 8.54183H11.209C11.5542 8.54183 11.834 8.82165 11.834 9.16683C11.834 9.51201 11.5542 9.79183 11.209 9.79183H5.37565C5.03047 9.79183 4.75065 9.51201 4.75065 9.16683ZM3.08398 13.3335C3.08398 12.9883 3.36381 12.7085 3.70898 12.7085H11.209C11.5542 12.7085 11.834 12.9883 11.834 13.3335C11.834 13.6787 11.5542 13.9585 11.209 13.9585H3.70898C3.36381 13.9585 3.08398 13.6787 3.08398 13.3335Z" fill="#66605C"/>
</svg>