<svg xmlns="http://www.w3.org/2000/svg" width="21" height="20" viewBox="0 0 21 20" fill="none">
  <path fill-rule="evenodd" clip-rule="evenodd" d="M14.3447 2.74061C14.5999 2.65554 14.8809 2.74332 15.0423 2.95854L17.5423 6.29187C17.7494 6.56801 17.6935 6.95976 17.4173 7.16687C17.1412 7.37398 16.7494 7.31801 16.5423 7.04187L15.1673 5.20854V16.6669C15.1673 17.012 14.8875 17.2919 14.5423 17.2919C14.1971 17.2919 13.9173 17.012 13.9173 16.6669V3.33354C13.9173 3.06452 14.0895 2.82568 14.3447 2.74061ZM11.209 7.29187H3.70898V6.04187H11.209V7.29187ZM11.209 11.4585H5.37565V10.2085H11.209V11.4585ZM11.209 15.6252H7.04232V14.3752H11.209V15.6252Z" fill="#66605C"/>
</svg>