<svg width="21" height="20" viewBox="0 0 21 20" fill="none" xmlns="http://www.w3.org/2000/svg">
<g id="Outline / Notes / Clipboard">
<path id="Vector" fill-rule="evenodd" clip-rule="evenodd" d="M6.67717 2.71713C6.77682 1.77545 7.57356 1.04175 8.54167 1.04175H12.7083C13.6764 1.04175 14.4732 1.77545 14.5728 2.71713C15.2087 2.73007 15.7586 2.76297 16.228 2.8492C16.8597 2.96523 17.3973 3.18626 17.8347 3.62371C18.3363 4.1253 18.5521 4.75687 18.6529 5.50696C18.75 6.22943 18.75 7.14803 18.75 8.28769V13.3791C18.75 14.5188 18.75 15.4374 18.6529 16.1599C18.5521 16.91 18.3363 17.5415 17.8347 18.0431C17.3331 18.5447 16.7015 18.7605 15.9515 18.8613C15.229 18.9584 14.3104 18.9584 13.1707 18.9584H8.07928C6.93962 18.9584 6.02101 18.9584 5.29854 18.8613C4.54845 18.7605 3.91689 18.5447 3.41529 18.0431C2.9137 17.5415 2.69795 16.91 2.5971 16.1599C2.49997 15.4374 2.49998 14.5188 2.5 13.3791V8.28769C2.49998 7.14803 2.49997 6.22943 2.5971 5.50696C2.69795 4.75687 2.9137 4.1253 3.41529 3.62371C3.85273 3.18626 4.3903 2.96523 5.02196 2.8492C5.49144 2.76297 6.04127 2.73007 6.67717 2.71713ZM6.67914 3.96747C6.08065 3.98025 5.61947 4.01036 5.24779 4.07863C4.77545 4.1654 4.50205 4.30471 4.29918 4.50759C4.06854 4.73823 3.91817 5.06204 3.83596 5.67352C3.75133 6.30297 3.75 7.13724 3.75 8.33342V13.3334C3.75 14.5296 3.75133 15.3639 3.83596 15.9933C3.91817 16.6048 4.06854 16.9286 4.29918 17.1592C4.52981 17.3899 4.85362 17.5402 5.4651 17.6225C6.09456 17.7071 6.92882 17.7084 8.125 17.7084H13.125C14.3212 17.7084 15.1554 17.7071 15.7849 17.6225C16.3964 17.5402 16.7202 17.3899 16.9508 17.1592C17.1815 16.9286 17.3318 16.6048 17.414 15.9933C17.4987 15.3639 17.5 14.5296 17.5 13.3334V8.33342C17.5 7.13723 17.4987 6.30297 17.414 5.67352C17.3318 5.06204 17.1815 4.73823 16.9508 4.50759C16.7479 4.30471 16.4746 4.1654 16.0022 4.07863C15.6305 4.01036 15.1693 3.98025 14.5709 3.96747C14.4631 4.9006 13.6703 5.62508 12.7083 5.62508H8.54167C7.57966 5.62508 6.78687 4.9006 6.67914 3.96747ZM8.54167 2.29175C8.19649 2.29175 7.91667 2.57157 7.91667 2.91675V3.75008C7.91667 4.09526 8.19649 4.37508 8.54167 4.37508H12.7083C13.0535 4.37508 13.3333 4.09526 13.3333 3.75008V2.91675C13.3333 2.57157 13.0535 2.29175 12.7083 2.29175H8.54167ZM5.83333 8.75008C5.83333 8.4049 6.11316 8.12508 6.45833 8.12508H14.7917C15.1368 8.12508 15.4167 8.4049 15.4167 8.75008C15.4167 9.09526 15.1368 9.37508 14.7917 9.37508H6.45833C6.11316 9.37508 5.83333 9.09526 5.83333 8.75008ZM6.66667 11.6667C6.66667 11.3216 6.94649 11.0417 7.29167 11.0417H13.9583C14.3035 11.0417 14.5833 11.3216 14.5833 11.6667C14.5833 12.0119 14.3035 12.2917 13.9583 12.2917H7.29167C6.94649 12.2917 6.66667 12.0119 6.66667 11.6667ZM7.5 14.5834C7.5 14.2382 7.77982 13.9584 8.125 13.9584H13.125C13.4702 13.9584 13.75 14.2382 13.75 14.5834C13.75 14.9286 13.4702 15.2084 13.125 15.2084H8.125C7.77982 15.2084 7.5 14.9286 7.5 14.5834Z" fill="#66605C"/>
</g>
</svg>
