<svg width="21" height="20" viewBox="0 0 21 20" fill="none" xmlns="http://www.w3.org/2000/svg">
<g id="Outline / Money / Card">
<path id="Vector (Stroke)" fill-rule="evenodd" clip-rule="evenodd" d="M8.91067 2.70825H12.338C13.8695 2.70824 15.0825 2.70823 16.0319 2.83586C17.0089 2.96722 17.7997 3.24399 18.4233 3.86762C19.0469 4.49126 19.3237 5.28205 19.4551 6.25907C19.5305 6.81979 19.5613 7.4725 19.5739 8.22848C19.5797 8.26255 19.5827 8.29755 19.5827 8.33325C19.5827 8.36263 19.5807 8.39153 19.5767 8.41983C19.5827 8.89127 19.5827 9.40145 19.5827 9.95291V10.0469C19.5827 11.5784 19.5827 12.7914 19.4551 13.7408C19.3237 14.7178 19.0469 15.5086 18.4233 16.1322C17.7997 16.7559 17.0089 17.0326 16.0319 17.164C15.0825 17.2916 13.8695 17.2916 12.338 17.2916H8.91067C7.37921 17.2916 6.16618 17.2916 5.21683 17.164C4.23981 17.0326 3.44902 16.7559 2.82539 16.1322C2.20175 15.5086 1.92499 14.7178 1.79363 13.7408C1.66599 12.7914 1.666 11.5784 1.66602 10.0469V9.9529C1.66601 9.40144 1.66601 8.89126 1.67196 8.41982C1.66804 8.39152 1.66602 8.36262 1.66602 8.33325C1.66602 8.29756 1.66901 8.26256 1.67476 8.2285C1.68738 7.47251 1.71824 6.81979 1.79363 6.25907C1.92499 5.28205 2.20175 4.49126 2.82539 3.86762C3.44902 3.24399 4.23981 2.96722 5.21683 2.83586C6.16618 2.70823 7.3792 2.70824 8.91067 2.70825ZM2.91767 8.95825C2.91609 9.28191 2.91602 9.62833 2.91602 9.99992C2.91602 11.5889 2.91734 12.7178 3.03248 13.5742C3.1452 14.4126 3.35659 14.8957 3.70927 15.2483C4.06194 15.601 4.54498 15.8124 5.38339 15.9251C6.23978 16.0403 7.36867 16.0416 8.95768 16.0416H12.291C13.88 16.0416 15.0089 16.0403 15.8653 15.9251C16.7037 15.8124 17.1868 15.601 17.5394 15.2483C17.8921 14.8957 18.1035 14.4126 18.2162 13.5742C18.3314 12.7178 18.3327 11.5889 18.3327 9.99992C18.3327 9.62833 18.3326 9.28191 18.331 8.95825H2.91767ZM18.311 7.70825H2.93774C2.95405 7.21931 2.98257 6.79687 3.03248 6.42563C3.1452 5.58722 3.35659 5.10418 3.70927 4.7515C4.06194 4.39883 4.54498 4.18744 5.38339 4.07472C6.23978 3.95958 7.36867 3.95825 8.95768 3.95825H12.291C13.88 3.95825 15.0089 3.95958 15.8653 4.07472C16.7037 4.18744 17.1868 4.39883 17.5394 4.7515C17.8921 5.10418 18.1035 5.58722 18.2162 6.42563C18.2661 6.79687 18.2947 7.21931 18.311 7.70825ZM4.99935 13.3333C4.99935 12.9881 5.27917 12.7083 5.62435 12.7083H8.95768C9.30286 12.7083 9.58268 12.9881 9.58268 13.3333C9.58268 13.6784 9.30286 13.9583 8.95768 13.9583H5.62435C5.27917 13.9583 4.99935 13.6784 4.99935 13.3333ZM10.416 13.3333C10.416 12.9881 10.6958 12.7083 11.041 12.7083H12.291C12.6362 12.7083 12.916 12.9881 12.916 13.3333C12.916 13.6784 12.6362 13.9583 12.291 13.9583H11.041C10.6958 13.9583 10.416 13.6784 10.416 13.3333Z" fill="#66605C"/>
</g>
</svg>
