<svg width="21" height="20" viewBox="0 0 21 20" fill="none" xmlns="http://www.w3.org/2000/svg">
<g id="Outline / Settings, Fine Tuning / Settings Minimalistic">
<g id="Vector">
<path fill-rule="evenodd" clip-rule="evenodd" d="M10.625 6.87484C8.89911 6.87484 7.5 8.27395 7.5 9.99984C7.5 11.7257 8.89911 13.1248 10.625 13.1248C12.3509 13.1248 13.75 11.7257 13.75 9.99984C13.75 8.27395 12.3509 6.87484 10.625 6.87484ZM8.75 9.99984C8.75 8.9643 9.58947 8.12484 10.625 8.12484C11.6605 8.12484 12.5 8.9643 12.5 9.99984C12.5 11.0354 11.6605 11.8748 10.625 11.8748C9.58947 11.8748 8.75 11.0354 8.75 9.99984Z" fill="#66605C"/>
<path fill-rule="evenodd" clip-rule="evenodd" d="M10.625 1.0415C10.0378 1.0415 9.50154 1.20283 8.91548 1.47514C8.3484 1.73864 7.69199 2.12737 6.87047 2.61388L6.2429 2.98553C5.42111 3.47219 4.76476 3.86087 4.25897 4.2327C3.73595 4.6172 3.33481 5.01076 3.04445 5.5266C2.75456 6.04162 2.62368 6.59229 2.56088 7.24572C2.49999 7.87933 2.49999 8.65526 2.5 9.62983V10.3698C2.49999 11.3444 2.49999 12.1203 2.56088 12.754C2.62368 13.4074 2.75456 13.9581 3.04445 14.4731C3.33481 14.9889 3.73595 15.3825 4.25897 15.767C4.76476 16.1388 5.42111 16.5275 6.2429 17.0141L6.8705 17.3858C7.69198 17.8723 8.34842 18.261 8.91548 18.5245C9.50154 18.7968 10.0378 18.9582 10.625 18.9582C11.2122 18.9582 11.7485 18.7968 12.3345 18.5245C12.9016 18.261 13.558 17.8723 14.3795 17.3858L15.0071 17.0142C15.8289 16.5275 16.4852 16.1388 16.991 15.767C17.514 15.3825 17.9152 14.9889 18.2055 14.4731C18.4954 13.9581 18.6263 13.4074 18.6891 12.754C18.75 12.1204 18.75 11.3444 18.75 10.3699V9.62986C18.75 8.6553 18.75 7.87932 18.6891 7.24572C18.6263 6.59229 18.4954 6.04162 18.2055 5.5266C17.9152 5.01076 17.514 4.6172 16.991 4.2327C16.4852 3.86087 15.8289 3.4722 15.0071 2.98554L14.3795 2.61388C13.558 2.12737 12.9016 1.73863 12.3345 1.47514C11.7485 1.20283 11.2122 1.0415 10.625 1.0415ZM7.47937 3.70604C8.33532 3.19915 8.93838 2.84285 9.44221 2.60875C9.9335 2.38047 10.284 2.2915 10.625 2.2915C10.966 2.2915 11.3165 2.38047 11.8078 2.60875C12.3116 2.84285 12.9147 3.19915 13.7706 3.70604L14.3424 4.04466C15.1983 4.55148 15.8008 4.90913 16.2506 5.23984C16.6889 5.56206 16.9425 5.83106 17.1162 6.13974C17.2905 6.44924 17.3916 6.81142 17.4449 7.3653C17.4993 7.93221 17.5 8.64819 17.5 9.66122V10.3385C17.5 11.3515 17.4993 12.0675 17.4449 12.6344C17.3916 13.1883 17.2905 13.5504 17.1162 13.8599C16.9425 14.1686 16.6889 14.4376 16.2506 14.7598C15.8008 15.0905 15.1983 15.4482 14.3424 15.955L13.7706 16.2936C12.9147 16.8005 12.3116 17.1568 11.8078 17.3909C11.3165 17.6192 10.966 17.7082 10.625 17.7082C10.284 17.7082 9.9335 17.6192 9.44221 17.3909C8.93838 17.1568 8.33532 16.8005 7.47937 16.2936L6.90757 15.955C6.05175 15.4482 5.44922 15.0905 4.99936 14.7598C4.56105 14.4376 4.3075 14.1686 4.13375 13.8599C3.95954 13.5504 3.85838 13.1883 3.80515 12.6344C3.75067 12.0675 3.75 11.3515 3.75 10.3385V9.66122C3.75 8.64819 3.75067 7.93221 3.80515 7.3653C3.85838 6.81142 3.95954 6.44924 4.13375 6.13974C4.3075 5.83106 4.56105 5.56206 4.99936 5.23984C5.44922 4.90913 6.05175 4.55148 6.90757 4.04466L7.47937 3.70604Z" fill="#66605C"/>
</g>
</g>
</svg>
