<svg width="21" height="20" viewBox="0 0 21 20" fill="none" xmlns="http://www.w3.org/2000/svg">
<g id="Outline / Messages, Conversation / Pen">
<path id="Vector" fill-rule="evenodd" clip-rule="evenodd" d="M12.9215 2.18462C14.4454 0.66079 16.916 0.66079 18.4398 2.18462C19.9637 3.70845 19.9637 6.17907 18.4398 7.7029L10.5354 15.6073C10.0838 16.059 9.81797 16.3248 9.52222 16.5555C9.17364 16.8274 8.79647 17.0605 8.3974 17.2507C8.05882 17.412 7.70213 17.5309 7.09621 17.7329L4.32028 18.6582L3.65188 18.881C3.10974 19.0617 2.51203 18.9206 2.10795 18.5165C1.70387 18.1124 1.56277 17.5147 1.74348 16.9726L2.89158 13.5283C3.09354 12.9223 3.21242 12.5656 3.37378 12.227C3.56397 11.828 3.79707 11.4508 4.06896 11.1022C4.29964 10.8065 4.56551 10.5406 5.01715 10.089L12.9215 2.18462ZM4.29144 17.3502L6.65937 16.5609C7.31864 16.3411 7.59874 16.2466 7.85963 16.1223C8.17674 15.9711 8.47645 15.7859 8.75345 15.5698C8.98133 15.3921 9.19112 15.1838 9.68251 14.6925L15.9904 8.38455C15.3332 8.15276 14.4865 7.72311 13.6939 6.9305C12.9013 6.1379 12.4717 5.29124 12.2399 4.63404L5.93199 10.9419C5.44061 11.4333 5.23234 11.6431 5.0546 11.871C4.83855 12.148 4.65332 12.4477 4.50219 12.7648C4.37786 13.0257 4.28335 13.3058 4.06359 13.9651L3.27428 16.333L4.29144 17.3502ZM13.2538 3.62012C13.2823 3.76592 13.3305 3.96412 13.4109 4.19581C13.5918 4.71744 13.9337 5.40248 14.5778 6.04662C15.222 6.69076 15.907 7.03261 16.4286 7.21358C16.6603 7.29397 16.8585 7.34213 17.0043 7.37063L17.5559 6.81902C18.5916 5.78334 18.5916 4.10418 17.5559 3.06851C16.5203 2.03283 14.8411 2.03283 13.8054 3.06851L13.2538 3.62012Z" fill="#66605C"/>
</g>
</svg>
