<svg width="21" height="20" viewBox="0 0 21 20" fill="none" xmlns="http://www.w3.org/2000/svg">
<g id="Outline / Money / Sale ">
<g id="Vector">
<path fill-rule="evenodd" clip-rule="evenodd" d="M9.45235 1.93244C10.1935 1.57818 11.0552 1.57818 11.7963 1.93244C12.1183 2.08634 12.4134 2.33801 12.8219 2.68648C12.8431 2.70456 12.8646 2.72291 12.8865 2.74152C13.0849 2.9106 13.1474 2.96258 13.2106 3.00496C13.3714 3.11274 13.552 3.18754 13.7419 3.22504C13.8166 3.23978 13.8975 3.2472 14.1574 3.26794C14.186 3.27022 14.2141 3.27246 14.2419 3.27466C14.7772 3.31714 15.1638 3.34781 15.5003 3.46667C16.2749 3.74026 16.8842 4.34954 17.1578 5.12413C17.2766 5.46064 17.3073 5.84722 17.3498 6.3825C17.352 6.41029 17.3542 6.43847 17.3565 6.46707C17.3772 6.72692 17.3847 6.80786 17.3994 6.88253C17.4369 7.07245 17.5117 7.25304 17.6195 7.41385C17.6618 7.47707 17.7138 7.53955 17.8829 7.73795C17.9015 7.7598 17.9199 7.78131 17.938 7.80253C18.2864 8.21105 18.5381 8.50609 18.692 8.82808C19.0462 9.56926 19.0462 10.4309 18.692 11.1721C18.5381 11.4941 18.2864 11.7891 17.938 12.1976C17.9199 12.2188 17.9015 12.2404 17.8829 12.2622C17.7138 12.4606 17.6618 12.5231 17.6195 12.5863C17.5117 12.7471 17.4369 12.9277 17.3994 13.1176C17.3847 13.1923 17.3772 13.2733 17.3565 13.5331C17.3542 13.5617 17.352 13.5899 17.3498 13.6177C17.3073 14.1529 17.2766 14.5395 17.1578 14.876C16.8842 15.6506 16.2749 16.2599 15.5003 16.5335C15.1638 16.6524 14.7772 16.683 14.2419 16.7255C14.2141 16.7277 14.186 16.7299 14.1574 16.7322C13.8975 16.753 13.8166 16.7604 13.7419 16.7751C13.552 16.8126 13.3714 16.8874 13.2106 16.9952C13.1474 17.0376 13.0849 17.0896 12.8865 17.2586C12.8646 17.2773 12.8431 17.2956 12.8219 17.3137C12.4134 17.6622 12.1183 17.9138 11.7963 18.0677C11.0552 18.422 10.1935 18.422 9.45235 18.0677C9.13036 17.9138 8.83531 17.6622 8.42677 17.3137C8.40557 17.2956 8.38406 17.2773 8.36222 17.2586C8.16382 17.0896 8.10134 17.0376 8.03811 16.9952C7.87731 16.8874 7.69672 16.8126 7.5068 16.7751C7.43213 16.7604 7.35118 16.753 7.09134 16.7322C7.06274 16.7299 7.03455 16.7277 7.00677 16.7255C6.47149 16.683 6.0849 16.6524 5.74839 16.5335C4.9738 16.2599 4.36453 15.6506 4.09094 14.876C3.97208 14.5395 3.9414 14.1529 3.89893 13.6177C3.89672 13.5899 3.89449 13.5617 3.8922 13.5331C3.87147 13.2732 3.86405 13.1923 3.84931 13.1176C3.81181 12.9277 3.73701 12.7471 3.62923 12.5863C3.58685 12.5231 3.53487 12.4606 3.36579 12.2622C3.34718 12.2404 3.32883 12.2189 3.31075 12.1977C2.96228 11.7891 2.71061 11.4941 2.55671 11.1721C2.20245 10.4309 2.20245 9.56926 2.55671 8.82808C2.71061 8.50609 2.96227 8.21104 3.31074 7.80251C3.32883 7.7813 3.34718 7.75979 3.36579 7.73795C3.53486 7.53955 3.58685 7.47707 3.62923 7.41385C3.73701 7.25304 3.81181 7.07245 3.84931 6.88253C3.86405 6.80786 3.87147 6.72692 3.8922 6.46707C3.89449 6.43847 3.89672 6.41029 3.89893 6.3825C3.9414 5.84722 3.97208 5.46064 4.09094 5.12413C4.36453 4.34954 4.9738 3.74026 5.74839 3.46667C6.0849 3.34781 6.47149 3.31714 7.00677 3.27466C7.03455 3.27246 7.06274 3.27022 7.09134 3.26794C7.35119 3.2472 7.43213 3.23978 7.5068 3.22504C7.69671 3.18754 7.87731 3.11274 8.03811 3.00496C8.10134 2.96258 8.16382 2.9106 8.36222 2.74152C8.38406 2.72291 8.40557 2.70456 8.42677 2.68647C8.83531 2.33801 9.13036 2.08634 9.45235 1.93244ZM11.2554 3.06416C10.8563 2.87341 10.3924 2.87341 9.99327 3.06416C9.83898 3.13791 9.67634 3.26968 9.17581 3.69622C9.16759 3.70323 9.15948 3.71014 9.15148 3.71697C8.98722 3.857 8.86731 3.95922 8.73648 4.04691C8.43784 4.24708 8.10246 4.386 7.74975 4.45563C7.59523 4.48614 7.43816 4.49864 7.22299 4.51577C7.2125 4.5166 7.20188 4.51745 7.19112 4.51831C6.53558 4.57062 6.3274 4.59245 6.16615 4.64941C5.74906 4.79673 5.42099 5.1248 5.27367 5.54188C5.21672 5.70314 5.19489 5.91131 5.14258 6.56685C5.14172 6.57762 5.14087 6.58824 5.14004 6.59872C5.12291 6.81389 5.11041 6.97096 5.0799 7.12548C5.01027 7.47819 4.87134 7.81357 4.67118 8.11222C4.58349 8.24305 4.48127 8.36295 4.34123 8.52722C4.33441 8.53522 4.32749 8.54333 4.32049 8.55155C3.89395 9.05207 3.76218 9.21471 3.68843 9.36901C3.49767 9.7681 3.49767 10.2321 3.68843 10.6312C3.76218 10.7855 3.89395 10.9481 4.32049 11.4486C4.3275 11.4568 4.33441 11.465 4.34123 11.473C4.48127 11.6372 4.58349 11.7571 4.67118 11.8879C4.87134 12.1866 5.01027 12.522 5.0799 12.8747C5.11041 13.0292 5.12291 13.1863 5.14004 13.4014C5.14087 13.4119 5.14172 13.4225 5.14258 13.4333C5.19489 14.0889 5.21672 14.297 5.27367 14.4583C5.42099 14.8754 5.74906 15.2034 6.16615 15.3508C6.3274 15.4077 6.53558 15.4295 7.19112 15.4819L7.22299 15.4844C7.43816 15.5015 7.59523 15.514 7.74975 15.5445C8.10246 15.6142 8.43784 15.7531 8.73648 15.9533C8.86732 16.0409 8.98722 16.1432 9.15149 16.2832L9.17581 16.3039C9.67634 16.7305 9.83898 16.8623 9.99327 16.936C10.3924 17.1268 10.8563 17.1268 11.2554 16.936C11.4097 16.8623 11.5724 16.7305 12.0729 16.3039L12.0972 16.2832C12.2615 16.1432 12.3814 16.0409 12.5122 15.9533C12.8109 15.7531 13.1462 15.6142 13.499 15.5445C13.6535 15.514 13.8105 15.5015 14.0257 15.4844L14.0576 15.4819C14.7131 15.4295 14.9213 15.4077 15.0825 15.3508C15.4996 15.2034 15.8277 14.8754 15.975 14.4583C16.032 14.297 16.0538 14.0889 16.1061 13.4333L16.1087 13.4014C16.1258 13.1863 16.1383 13.0292 16.1688 12.8747C16.2384 12.522 16.3774 12.1866 16.5775 11.888C16.6652 11.7571 16.7674 11.6372 16.9075 11.473L16.9282 11.4486C17.3548 10.9481 17.4865 10.7855 17.5603 10.6312C17.751 10.2321 17.751 9.7681 17.5603 9.36901C17.4865 9.21471 17.3548 9.05207 16.9282 8.55155L16.9075 8.52719C16.7674 8.36294 16.6652 8.24304 16.5775 8.11221C16.3774 7.81357 16.2384 7.47819 16.1688 7.12548C16.1383 6.97096 16.1258 6.81389 16.1087 6.59872L16.1061 6.56685C16.0538 5.91131 16.032 5.70314 15.975 5.54188C15.8277 5.1248 15.4996 4.79673 15.0825 4.64941C14.9213 4.59245 14.7131 4.57062 14.0576 4.51831C14.0468 4.51745 14.0362 4.5166 14.0257 4.51577C13.8105 4.49864 13.6535 4.48614 13.499 4.45563C13.1462 4.386 12.8109 4.24708 12.5122 4.04691C12.3814 3.95922 12.2615 3.857 12.0972 3.71696C12.0892 3.71014 12.0811 3.70323 12.0729 3.69622C11.5724 3.26968 11.4097 3.13791 11.2554 3.06416Z" fill="#66605C"/>
<path fill-rule="evenodd" clip-rule="evenodd" d="M13.5765 7.04791C13.8214 7.29284 13.8214 7.68994 13.5765 7.93487L8.55913 12.9523C8.31421 13.1972 7.9171 13.1972 7.67218 12.9523C7.42725 12.7073 7.42725 12.3102 7.67218 12.0653L12.6896 7.04791C12.9345 6.80298 13.3316 6.80298 13.5765 7.04791Z" fill="#66605C"/>
<path d="M13.5512 12.0907C13.5512 12.5525 13.1768 12.9269 12.7149 12.9269C12.2531 12.9269 11.8787 12.5525 11.8787 12.0907C11.8787 11.6288 12.2531 11.2544 12.7149 11.2544C13.1768 11.2544 13.5512 11.6288 13.5512 12.0907Z" fill="#66605C"/>
<path d="M9.37 7.9095C9.37 8.37134 8.99561 8.74574 8.53377 8.74574C8.07193 8.74574 7.69754 8.37134 7.69754 7.9095C7.69754 7.44767 8.07193 7.07327 8.53377 7.07327C8.99561 7.07327 9.37 7.44767 9.37 7.9095Z" fill="#66605C"/>
</g>
</g>
</svg>
