<svg width="21" height="20" viewBox="0 0 21 20" fill="none" xmlns="http://www.w3.org/2000/svg">
<g id="Outline / Messages, Conversation /  Chat Round ">
<path id="Vector" fill-rule="evenodd" clip-rule="evenodd" d="M19.584 10.0001C19.584 5.05253 15.5732 1.04175 10.6257 1.04175C5.6781 1.04175 1.66732 5.05253 1.66732 10.0001C1.66732 11.432 2.00374 12.7871 2.60242 13.9891C2.69176 14.1685 2.71071 14.3516 2.66949 14.5057L2.17315 16.3607C1.83338 17.6306 2.99512 18.7924 4.26498 18.4526L6.12002 17.9562C6.2741 17.915 6.45724 17.934 6.63661 18.0233C7.83859 18.622 9.19373 18.9584 10.6257 18.9584C15.5732 18.9584 19.584 14.9476 19.584 10.0001ZM10.6257 2.29175C14.8828 2.29175 18.334 5.74289 18.334 10.0001C18.334 14.2573 14.8828 17.7084 10.6257 17.7084C9.39144 17.7084 8.22666 17.4188 7.19391 16.9044C6.77941 16.698 6.28376 16.6185 5.79693 16.7487L3.9419 17.2451C3.6012 17.3362 3.28951 17.0245 3.38067 16.6838L3.87701 14.8288C4.00727 14.342 3.92777 13.8463 3.72131 13.4318C3.20692 12.3991 2.91732 11.2343 2.91732 10.0001C2.91732 5.74289 6.36846 2.29175 10.6257 2.29175Z" fill="#66605C"/>
</g>
</svg>
