<svg width="21" height="20" viewBox="0 0 21 20" fill="none" xmlns="http://www.w3.org/2000/svg">
<g id="Outline / Hands / Hand Stars">
<path id="Vector" fill-rule="evenodd" clip-rule="evenodd" d="M10.6248 2.41716C10.5257 2.56424 10.4035 2.78106 10.2217 3.10719L10.1125 3.30314C10.1044 3.31769 10.096 3.33289 10.0874 3.34864C9.99689 3.51305 9.87398 3.7364 9.671 3.89049C9.46428 4.04742 9.21499 4.1023 9.03675 4.14153C9.01983 4.14525 9.00355 4.14884 8.98801 4.15236L8.77589 4.20035C8.38824 4.28806 8.14666 4.3442 7.98433 4.40095C8.0847 4.55175 8.25318 4.75093 8.52648 5.07052L8.67109 5.23962C8.68173 5.25206 8.69282 5.2649 8.70426 5.27814C8.82738 5.42067 8.99118 5.61028 9.06688 5.85373C9.1418 6.09465 9.11644 6.34391 9.09705 6.53444C9.09524 6.55223 9.09348 6.5695 9.09187 6.58622L9.07 6.81183C9.03095 7.21487 9.00688 7.47558 9.00757 7.66001C9.16775 7.60324 9.38713 7.50358 9.72195 7.34942L9.92055 7.25798C9.93517 7.25125 9.95047 7.24409 9.96641 7.23663C10.1313 7.15948 10.3652 7.05003 10.6248 7.05003C10.8844 7.05003 11.1183 7.15948 11.2832 7.23663C11.2991 7.24409 11.3144 7.25125 11.329 7.25798L11.5276 7.34943C11.8624 7.50359 12.0818 7.60324 12.242 7.66001C12.2427 7.47559 12.2186 7.21487 12.1796 6.81183L12.1577 6.58622C12.1561 6.5695 12.1543 6.55223 12.1525 6.53444C12.1331 6.34391 12.1078 6.09465 12.1827 5.85373C12.2584 5.61028 12.4222 5.42067 12.5453 5.27814C12.5568 5.26489 12.5678 5.25206 12.5785 5.23962L12.7231 5.07052C12.9964 4.75093 13.1649 4.55175 13.2652 4.40095C13.1029 4.3442 12.8613 4.28806 12.4737 4.20035L12.2616 4.15236C12.246 4.14884 12.2297 4.14525 12.2128 4.14153C12.0346 4.1023 11.7853 4.04742 11.5786 3.89049C11.3756 3.7364 11.2527 3.51305 11.1622 3.34863C11.1535 3.33289 11.1452 3.31769 11.1371 3.30314L11.0278 3.10719C10.846 2.78105 10.7239 2.56424 10.6248 2.41716ZM12.4189 7.70858C12.4198 7.70861 12.4203 7.70865 12.4203 7.70866L12.4189 7.70858ZM8.82923 7.70866C8.82924 7.70865 8.82973 7.70861 8.83068 7.70858L8.82923 7.70866ZM9.69407 1.57078C9.8738 1.33609 10.1672 1.04175 10.6248 1.04175C11.0823 1.04175 11.3758 1.33609 11.5555 1.57078C11.7286 1.79678 11.9057 2.11467 12.0984 2.46041C12.1054 2.47309 12.1125 2.48581 12.1196 2.49856L12.2289 2.69451C12.2595 2.74953 12.2833 2.79205 12.3043 2.82851C12.3185 2.85301 12.3296 2.87152 12.3385 2.8858C12.3525 2.88967 12.3703 2.89427 12.393 2.8998C12.4322 2.90934 12.4777 2.91967 12.5374 2.93317L12.7495 2.98117C12.764 2.98444 12.7784 2.9877 12.7928 2.99096C13.1652 3.07515 13.5128 3.15374 13.7753 3.25718C14.0597 3.36927 14.4034 3.57127 14.5358 3.99707C14.6661 4.41605 14.5057 4.77776 14.3436 5.03516C14.1914 5.277 13.9564 5.55174 13.7011 5.85019L13.5285 6.05203C13.4879 6.09952 13.4566 6.13615 13.43 6.16824C13.4082 6.19456 13.3931 6.21357 13.3823 6.22792C13.3837 6.27433 13.3897 6.33968 13.4019 6.46565L13.4279 6.7337C13.4666 7.13307 13.502 7.49758 13.4892 7.78467C13.4759 8.08294 13.4055 8.48214 13.051 8.7513C12.6862 9.0282 12.2787 8.9742 11.9896 8.89137C11.7191 8.81386 11.394 8.66413 11.0455 8.50359C11.032 8.49736 11.0184 8.49111 11.0048 8.48485L10.8062 8.39341C10.7504 8.36769 10.7076 8.34803 10.6705 8.33165C10.6522 8.32359 10.6372 8.31718 10.6248 8.31207C10.6124 8.31718 10.5974 8.32359 10.5791 8.33165C10.5419 8.34803 10.4992 8.36769 10.4433 8.39341L10.2447 8.48485C10.2311 8.49111 10.2176 8.49736 10.2041 8.50359C9.85553 8.66413 9.53049 8.81386 9.25995 8.89137C8.97089 8.9742 8.56336 9.0282 8.1986 8.7513C7.84404 8.48214 7.77367 8.08294 7.76039 7.78467C7.7476 7.49759 7.78296 7.13308 7.82171 6.73373C7.82308 6.71962 7.82446 6.70546 7.82583 6.69127L7.84769 6.46565C7.8599 6.33968 7.86585 6.27433 7.86726 6.22792C7.85648 6.21357 7.84141 6.19456 7.8196 6.16824C7.79301 6.13615 7.76171 6.09952 7.72109 6.05202L7.57648 5.88293C7.56712 5.87198 7.55778 5.86106 7.54847 5.85018C7.29318 5.55173 7.05817 5.27699 6.90593 5.03516C6.74389 4.77776 6.58349 4.41605 6.71378 3.99707C6.84619 3.57127 7.18983 3.36927 7.47424 3.25718C7.73673 3.15374 8.08433 3.07515 8.45675 2.99096C8.47114 2.9877 8.48557 2.98444 8.50004 2.98117L8.71215 2.93317C8.77183 2.91967 8.8174 2.90934 8.85657 2.89981C8.8793 2.89427 8.89703 2.88968 8.91105 2.88581C8.91998 2.87152 8.93108 2.85301 8.94524 2.82851C8.96631 2.79205 8.99003 2.74953 9.0207 2.69451L9.12993 2.49856C9.13704 2.48581 9.14412 2.47309 9.15119 2.46041C9.34385 2.11467 9.52101 1.79678 9.69407 1.57078ZM3.95812 6.83476C4.00159 6.91503 4.09414 7.07887 4.24606 7.19419C4.40931 7.31813 4.60527 7.35939 4.68671 7.37654C4.69485 7.37825 4.70184 7.37972 4.70754 7.38101L4.72471 7.3849L4.69747 7.41675C4.69328 7.42164 4.68824 7.42739 4.68247 7.43396C4.62533 7.49907 4.4976 7.6446 4.43867 7.83411C4.38054 8.02103 4.40149 8.21244 4.41106 8.2999C4.41203 8.30882 4.41289 8.31665 4.41353 8.32329L4.41443 8.33256C4.33585 8.29496 4.15768 8.21256 3.95812 8.21256C3.75855 8.21256 3.58039 8.29496 3.5018 8.33256L3.5027 8.32329C3.50335 8.31665 3.5042 8.30882 3.50518 8.2999C3.51475 8.21244 3.5357 8.02103 3.47757 7.83411C3.41864 7.6446 3.29091 7.49906 3.23376 7.43396C3.228 7.42739 3.22296 7.42164 3.21877 7.41675L3.19153 7.3849L3.20869 7.38101C3.21439 7.37972 3.22139 7.37825 3.22953 7.37654C3.31096 7.35939 3.50692 7.31813 3.67018 7.19419C3.82209 7.07887 3.91464 6.91503 3.95812 6.83476ZM3.07077 6.77142L2.95253 6.24883L3.07077 6.77142ZM3.46312 8.86038C3.46329 8.86161 3.46336 8.86227 3.46334 8.86228L3.46312 8.86038ZM4.45289 8.86228C4.45288 8.86226 4.45294 8.86161 4.45312 8.86038L4.45289 8.86228ZM3.24466 5.59543C3.35188 5.45542 3.57949 5.20842 3.95812 5.20842C4.33675 5.20842 4.56436 5.45542 4.67158 5.59543C4.77248 5.72719 4.87136 5.90476 4.96233 6.06813C4.96775 6.07786 4.97314 6.08755 4.9785 6.09716L5.01905 6.1699L5.08946 6.18583C5.10018 6.18825 5.11099 6.1907 5.12189 6.19315C5.29763 6.23282 5.49349 6.27702 5.64797 6.33789C5.82379 6.40719 6.104 6.5584 6.21202 6.90578C6.31793 7.24635 6.18027 7.528 6.082 7.68411C5.99325 7.8251 5.8618 7.97866 5.74109 8.11969C5.73394 8.12804 5.72683 8.13635 5.71977 8.14461L5.65896 8.21571L5.66864 8.31553C5.66969 8.32634 5.67074 8.33721 5.67181 8.34812C5.69019 8.53703 5.70993 8.7398 5.70251 8.90628C5.69462 9.08343 5.65088 9.4039 5.36016 9.62459C5.05924 9.85303 4.7316 9.7969 4.55446 9.74614C4.39526 9.70052 4.2123 9.61616 4.04792 9.54037C4.03769 9.53565 4.02753 9.53097 4.01744 9.52632L3.95812 9.49901L3.89879 9.52632C3.88871 9.53096 3.87855 9.53565 3.86831 9.54037C3.70394 9.61616 3.52098 9.70052 3.36178 9.74614C3.18464 9.7969 2.857 9.85303 2.55607 9.62459C2.26535 9.4039 2.22162 9.08343 2.21373 8.90628C2.20631 8.7398 2.22605 8.53703 2.24443 8.34813C2.24549 8.33721 2.24655 8.32634 2.2476 8.31553L2.25727 8.21571L2.19647 8.14461C2.18941 8.13635 2.1823 8.12804 2.17515 8.11969C2.05443 7.97866 1.92299 7.8251 1.83423 7.68411C1.73596 7.528 1.59831 7.24635 1.70421 6.90578C1.81224 6.5584 2.09244 6.40719 2.26827 6.33789C2.42274 6.27702 2.6186 6.23282 2.79435 6.19315C2.80524 6.1907 2.81606 6.18825 2.82678 6.18583L2.89719 6.1699L2.93774 6.09716C2.9431 6.08755 2.94849 6.07787 2.9539 6.06814C3.04488 5.90476 3.14375 5.72719 3.24466 5.59543ZM17.2914 6.83476C17.3349 6.91503 17.4275 7.07887 17.5794 7.19419C17.7426 7.31812 17.9386 7.35939 18.02 7.37654C18.0282 7.37825 18.0352 7.37972 18.0409 7.38101L18.058 7.3849L18.0308 7.41675C18.0266 7.42164 18.0216 7.42739 18.0158 7.43396C17.9587 7.49907 17.8309 7.6446 17.772 7.83411C17.7139 8.02102 17.7348 8.21244 17.7444 8.2999C17.7454 8.30881 17.7462 8.31665 17.7469 8.32329L17.7478 8.33256C17.6692 8.29496 17.491 8.21256 17.2914 8.21256C17.0919 8.21256 16.9137 8.29496 16.8351 8.33256L16.836 8.32329C16.8367 8.31665 16.8375 8.30881 16.8385 8.2999C16.8481 8.21244 16.869 8.02102 16.8109 7.83411C16.752 7.6446 16.6242 7.49906 16.5671 7.43396C16.5613 7.42739 16.5563 7.42164 16.5521 7.41675L16.5249 7.3849L16.542 7.38101C16.5477 7.37972 16.5547 7.37825 16.5629 7.37654C16.6443 7.35939 16.8403 7.31813 17.0035 7.19419C17.1554 7.07887 17.248 6.91503 17.2914 6.83476ZM16.7965 8.86038C16.7966 8.86171 16.7967 8.86236 16.7967 8.86227L16.7965 8.86038ZM16.578 5.59543C16.6852 5.45542 16.9128 5.20842 17.2914 5.20842C17.6701 5.20842 17.8977 5.45542 18.0049 5.59543C18.1058 5.72719 18.2047 5.90476 18.2957 6.06813C18.3011 6.07786 18.3065 6.08754 18.3118 6.09716L18.3524 6.1699L18.4228 6.18583C18.4335 6.18826 18.4443 6.1907 18.4552 6.19316C18.631 6.23282 18.8268 6.27702 18.9813 6.3379C19.1571 6.40719 19.4373 6.5584 19.5454 6.90578C19.6513 7.24635 19.5136 7.528 19.4153 7.6841C19.3266 7.8251 19.1951 7.97867 19.0744 8.1197C19.0673 8.12805 19.0602 8.13635 19.0531 8.14461L18.9923 8.21571L19.002 8.31554C19.003 8.32634 19.0041 8.33721 19.0051 8.34812C19.0235 8.53703 19.0433 8.7398 19.0358 8.90628C19.0279 9.08343 18.9842 9.4039 18.6935 9.62459C18.3926 9.85303 18.0649 9.7969 17.8878 9.74614C17.7286 9.70053 17.5456 9.61617 17.3813 9.54038C17.371 9.53566 17.3609 9.53097 17.3508 9.52632L17.2914 9.49901L17.2321 9.52632C17.222 9.53096 17.2119 9.53565 17.2017 9.54036C17.0373 9.61616 16.8543 9.70052 16.6951 9.74614C16.518 9.7969 16.1903 9.85303 15.8894 9.62459C15.5987 9.4039 15.555 9.08343 15.5471 8.90628C15.5396 8.7398 15.5594 8.53703 15.5778 8.34812C15.5788 8.33721 15.5799 8.32634 15.5809 8.31554L15.5906 8.21571L15.5298 8.14461C15.5227 8.13634 15.5156 8.12804 15.5085 8.11968C15.3878 7.97866 15.2563 7.8251 15.1676 7.68411C15.0693 7.52801 14.9316 7.24635 15.0375 6.90578C15.1456 6.5584 15.4258 6.40719 15.6016 6.3379C15.7561 6.27702 15.9519 6.23282 16.1277 6.19315C16.1386 6.1907 16.1494 6.18825 16.1601 6.18583L16.2305 6.1699L16.2711 6.09716C16.2764 6.08755 16.2818 6.07787 16.2872 6.06814C16.3782 5.90476 16.4771 5.72719 16.578 5.59543ZM17.7862 8.86228C17.7862 8.86221 17.7863 8.86157 17.7864 8.86038L17.7862 8.86228ZM7.86138 12.0402C9.41623 11.739 11.0807 11.8066 12.4275 12.6099C12.6167 12.7227 12.794 12.8633 12.9487 13.0371C13.2619 13.3889 13.4237 13.8262 13.4313 14.2646C13.5907 14.1618 13.7504 14.0476 13.9126 13.9251L15.4186 12.7874C16.1724 12.218 17.2679 12.2179 18.0218 12.7872C18.7185 13.3132 18.9962 14.2572 18.4975 15.0565C18.1431 15.6246 17.6093 16.4105 17.0661 16.9136C16.517 17.4221 15.7355 17.8497 15.1444 18.1351C14.4265 18.4816 13.6511 18.6731 12.8971 18.7952C11.3561 19.0446 9.75264 19.0065 8.22894 18.6925C7.45027 18.5321 6.64107 18.4487 5.8414 18.4487H3.95812C3.61294 18.4487 3.33312 18.1689 3.33312 17.8237C3.33312 17.4786 3.61294 17.1987 3.95812 17.1987H5.8414C6.72649 17.1987 7.62018 17.2909 8.48117 17.4683C9.85787 17.7519 11.3082 17.7861 12.6974 17.5612C13.3881 17.4494 14.0332 17.2834 14.601 17.0093C15.1705 16.7344 15.8108 16.3724 16.2167 15.9965C16.6271 15.6163 17.0865 14.9566 17.437 14.3949C17.5427 14.2253 17.5281 13.9807 17.2686 13.7847C16.9605 13.5521 16.48 13.5521 16.172 13.7848L14.666 14.9225C14.0648 15.3766 13.3249 15.8625 12.407 16.0089C12.3144 16.0236 12.218 16.0372 12.1179 16.0491C12.0702 16.0577 12.0205 16.0634 11.9691 16.0653C11.5005 16.1119 10.9579 16.1227 10.3592 16.0662C10.0155 16.0337 9.76324 15.7288 9.79569 15.3852C9.82814 15.0415 10.133 14.7893 10.4767 14.8217C10.9995 14.8711 11.4686 14.8602 11.8666 14.8193C11.8747 14.8185 11.8828 14.8176 11.8908 14.8168C11.9074 14.8071 11.9328 14.7895 11.9661 14.7605C12.2323 14.5281 12.2561 14.139 12.0151 13.8683C11.954 13.7997 11.8788 13.7381 11.7872 13.6834C10.8029 13.0964 9.48831 12.9983 8.09913 13.2674C6.71785 13.535 5.34554 14.1515 4.31966 14.879C4.0381 15.0787 3.64798 15.0123 3.44831 14.7307C3.24863 14.4492 3.31501 14.059 3.59657 13.8594C4.76187 13.033 6.29862 12.343 7.86138 12.0402Z" fill="#66605C"/>
</g>
</svg>
