<svg width="21" height="20" viewBox="0 0 21 20" fill="none" xmlns="http://www.w3.org/2000/svg">
<g id="Outline / Users / User">
<g id="Vector">
<path fill-rule="evenodd" clip-rule="evenodd" d="M10.6258 1.04175C8.43964 1.04175 6.66743 2.81395 6.66743 5.00008C6.66743 7.18621 8.43964 8.95842 10.6258 8.95842C12.8119 8.95842 14.5841 7.18621 14.5841 5.00008C14.5841 2.81395 12.8119 1.04175 10.6258 1.04175ZM7.91743 5.00008C7.91743 3.50431 9.12999 2.29175 10.6258 2.29175C12.1215 2.29175 13.3341 3.50431 13.3341 5.00008C13.3341 6.49585 12.1215 7.70842 10.6258 7.70842C9.12999 7.70842 7.91743 6.49585 7.91743 5.00008Z" fill="#66605C"/>
<path fill-rule="evenodd" clip-rule="evenodd" d="M10.6258 10.2084C8.6978 10.2084 6.92153 10.6467 5.6053 11.387C4.30867 12.1164 3.3341 13.2218 3.3341 14.5834L3.33404 14.6684C3.3331 15.6366 3.33192 16.8517 4.39777 17.7197C4.92233 18.1469 5.65616 18.4506 6.6476 18.6513C7.64181 18.8525 8.93762 18.9584 10.6258 18.9584C12.3139 18.9584 13.6097 18.8525 14.6039 18.6513C15.5954 18.4506 16.3292 18.1469 16.8538 17.7197C17.9196 16.8517 17.9184 15.6366 17.9175 14.6684L17.9174 14.5834C17.9174 13.2218 16.9429 12.1164 15.6462 11.387C14.33 10.6467 12.5537 10.2084 10.6258 10.2084ZM4.5841 14.5834C4.5841 13.874 5.10191 13.1044 6.21813 12.4765C7.31476 11.8596 8.87182 11.4584 10.6258 11.4584C12.3797 11.4584 13.9368 11.8596 15.0334 12.4765C16.1496 13.1044 16.6674 13.874 16.6674 14.5834C16.6674 15.6733 16.6338 16.2868 16.0644 16.7504C15.7557 17.0019 15.2395 17.2473 14.3559 17.4261C13.4751 17.6044 12.271 17.7084 10.6258 17.7084C8.98058 17.7084 7.77638 17.6044 6.89559 17.4261C6.01203 17.2473 5.49586 17.0019 5.18709 16.7504C4.61769 16.2868 4.5841 15.6733 4.5841 14.5834Z" fill="#66605C"/>
</g>
</g>
</svg>
