<svg width="21" height="20" viewBox="0 0 21 20" fill="none" xmlns="http://www.w3.org/2000/svg">
<g id="Outline / Arrows Action / Logout">
<g id="Vector">
<path d="M10.6257 2.7085C10.9708 2.7085 11.2507 2.98832 11.2507 3.3335C11.2507 3.67867 10.9708 3.9585 10.6257 3.9585C7.28893 3.9585 4.58398 6.66344 4.58398 10.0002C4.58398 13.3369 7.28893 16.0418 10.6257 16.0418C10.9708 16.0418 11.2507 16.3217 11.2507 16.6668C11.2507 17.012 10.9708 17.2918 10.6257 17.2918C6.59857 17.2918 3.33398 14.0272 3.33398 10.0002C3.33398 5.97309 6.59857 2.7085 10.6257 2.7085Z" fill="#66605C"/>
<path d="M14.3504 7.9421C14.1063 7.69803 14.1063 7.3023 14.3504 7.05822C14.5945 6.81414 14.9902 6.81414 15.2343 7.05822L17.7343 9.55822C17.9783 9.8023 17.9783 10.198 17.7343 10.4421L15.2343 12.9421C14.9902 13.1862 14.5945 13.1862 14.3504 12.9421C14.1063 12.698 14.1063 12.3023 14.3504 12.0582L15.7834 10.6252H8.95898C8.61381 10.6252 8.33398 10.3453 8.33398 10.0002C8.33398 9.65498 8.61381 9.37516 8.95898 9.37516H15.7834L14.3504 7.9421Z" fill="#66605C"/>
</g>
</g>
</svg>
