<svg width="21" height="20" viewBox="0 0 21 20" fill="none" xmlns="http://www.w3.org/2000/svg">
<g id="Outline / Business, Statistic / Chart Square">
<g id="Vector">
<path d="M7.08268 7.50008C7.08268 7.1549 6.80286 6.87508 6.45768 6.87508C6.1125 6.87508 5.83268 7.1549 5.83268 7.50008V15.0001C5.83268 15.3453 6.1125 15.6251 6.45768 15.6251C6.80286 15.6251 7.08268 15.3453 7.08268 15.0001V7.50008Z" fill="#66605C"/>
<path d="M10.6243 4.37508C10.9695 4.37508 11.2493 4.6549 11.2493 5.00008V15.0001C11.2493 15.3453 10.9695 15.6251 10.6243 15.6251C10.2792 15.6251 9.99935 15.3453 9.99935 15.0001V5.00008C9.99935 4.6549 10.2792 4.37508 10.6243 4.37508Z" fill="#66605C"/>
<path d="M15.416 10.8334C15.416 10.4882 15.1362 10.2084 14.791 10.2084C14.4458 10.2084 14.166 10.4882 14.166 10.8334V15.0001C14.166 15.3453 14.4458 15.6251 14.791 15.6251C15.1362 15.6251 15.416 15.3453 15.416 15.0001V10.8334Z" fill="#66605C"/>
<path fill-rule="evenodd" clip-rule="evenodd" d="M10.5765 1.04175C8.65287 1.04174 7.14534 1.04173 5.9691 1.19987C4.76516 1.36174 3.81514 1.69952 3.06946 2.4452C2.32379 3.19087 1.986 4.14089 1.82414 5.34484C1.666 6.52108 1.66601 8.02861 1.66602 9.95227V10.0479C1.66601 11.9716 1.666 13.4791 1.82414 14.6553C1.986 15.8593 2.32379 16.8093 3.06946 17.555C3.81514 18.3006 4.76516 18.6384 5.9691 18.8003C7.14534 18.9584 8.65288 18.9584 10.5765 18.9584H10.6722C12.5958 18.9584 14.1034 18.9584 15.2796 18.8003C16.4835 18.6384 17.4336 18.3006 18.1792 17.555C18.9249 16.8093 19.2627 15.8593 19.4246 14.6553C19.5827 13.4791 19.5827 11.9716 19.5827 10.0479V9.95227C19.5827 8.02861 19.5827 6.52108 19.4246 5.34484C19.2627 4.14089 18.9249 3.19087 18.1792 2.4452C17.4336 1.69952 16.4835 1.36174 15.2796 1.19987C14.1034 1.04173 12.5958 1.04174 10.6722 1.04175H10.5765ZM3.95335 3.32908C4.42806 2.85437 5.07033 2.58195 6.13566 2.43872C7.21898 2.29308 8.6425 2.29175 10.6243 2.29175C12.6062 2.29175 14.0297 2.29308 15.113 2.43872C16.1784 2.58195 16.8206 2.85437 17.2954 3.32908C17.7701 3.80379 18.0425 4.44606 18.1857 5.5114C18.3314 6.59471 18.3327 8.01823 18.3327 10.0001C18.3327 11.9819 18.3314 13.4055 18.1857 14.4888C18.0425 15.5541 17.7701 16.1964 17.2954 16.6711C16.8206 17.1458 16.1784 17.4182 15.113 17.5614C14.0297 17.7071 12.6062 17.7084 10.6243 17.7084C8.6425 17.7084 7.21898 17.7071 6.13566 17.5614C5.07033 17.4182 4.42806 17.1458 3.95335 16.6711C3.47863 16.1964 3.20622 15.5541 3.06299 14.4888C2.91734 13.4055 2.91602 11.9819 2.91602 10.0001C2.91602 8.01823 2.91734 6.59471 3.06299 5.5114C3.20622 4.44606 3.47863 3.80379 3.95335 3.32908Z" fill="#66605C"/>
</g>
</g>
</svg>
