<svg width="21" height="20" viewBox="0 0 21 20" fill="none" xmlns="http://www.w3.org/2000/svg">
<g id="Bold / Shopping, Ecommerce / Cart Large Minimalistic">
<g id="Vector">
<path d="M2.36172 2.29263C2.47621 1.96699 2.833 1.79582 3.15864 1.91031L3.40981 1.99861C3.92358 2.17922 4.35994 2.33262 4.70335 2.50112C5.07054 2.68129 5.38541 2.90323 5.62223 3.24978C5.85721 3.59365 5.95423 3.97092 5.999 4.38457C6.01905 4.56973 6.02962 4.77468 6.0352 4.99996H14.9004C16.3045 4.99996 17.5685 4.99996 17.9384 5.48086C18.3084 5.96176 18.1637 6.68637 17.8745 8.13559L17.458 10.1562C17.1954 11.4303 17.0641 12.0673 16.6044 12.442C16.1446 12.8166 15.4942 12.8166 14.1933 12.8166H9.77424C7.45015 12.8166 6.28811 12.8166 5.56611 12.0551C4.84411 11.2936 4.79141 10.4846 4.79141 8.03329L4.79141 5.86522C4.79141 5.2486 4.79056 4.83592 4.75626 4.51908C4.72349 4.21629 4.6654 4.06511 4.59019 3.95504C4.5168 3.84765 4.40541 3.74729 4.15272 3.62331C3.88369 3.4913 3.51806 3.36167 2.96172 3.16608L2.74404 3.08955C2.41841 2.97506 2.24723 2.61827 2.36172 2.29263Z" fill="white"/>
<path d="M6.87492 15C7.56527 15 8.12492 15.5596 8.12492 16.25C8.12492 16.9403 7.56527 17.5 6.87492 17.5C6.18456 17.5 5.62492 16.9403 5.62492 16.25C5.62492 15.5596 6.18456 15 6.87492 15Z" fill="white"/>
<path d="M14.3749 15C15.0653 15 15.6249 15.5597 15.6249 16.25C15.6249 16.9404 15.0653 17.5 14.3749 17.5C13.6846 17.5 13.1249 16.9404 13.1249 16.25C13.1249 15.5597 13.6846 15 14.3749 15Z" fill="white"/>
</g>
</g>
</svg>
