<svg width="21" height="20" viewBox="0 0 21 20" fill="none" xmlns="http://www.w3.org/2000/svg">
<g id="Outline / Essentional, UI / Saxophone" clip-path="url(#clip0_1760_77971)">
<g id="Vector">
<path d="M6.38513 13.3815C6.55772 13.6804 6.4553 14.0627 6.15636 14.2352L4.71299 15.0686C4.41405 15.2412 4.03181 15.1387 3.85922 14.8398C3.68663 14.5409 3.78905 14.1586 4.08799 13.986L5.53136 13.1527C5.8303 12.9801 6.21254 13.0825 6.38513 13.3815Z" fill="#66605C"/>
<path fill-rule="evenodd" clip-rule="evenodd" d="M11.8051 4.43573C11.6247 4.12335 11.4594 3.83694 11.2936 3.62206C11.111 3.38542 10.8733 3.16112 10.5215 3.06686C10.1697 2.9726 9.85173 3.048 9.57527 3.16163C9.32422 3.26481 9.03785 3.43019 8.72551 3.61057L8.5694 3.7007L8.51156 3.73395C8.27613 3.86897 8.02204 4.01469 7.84266 4.24847C7.66327 4.48225 7.58827 4.7654 7.51879 5.02775L7.50165 5.09222L6.51257 8.7835C6.32306 9.49079 6.26267 9.6734 6.15414 9.81485C6.0456 9.9563 5.88484 10.0619 5.25069 10.428L2.83796 11.9195C2.51719 12.1046 2.24942 12.2592 2.03824 12.4012C1.81841 12.5489 1.62168 12.7074 1.46223 12.9152C1.09223 13.3973 0.928937 14.0068 1.00827 14.6094C1.04246 14.869 1.1336 15.1046 1.25011 15.3425C1.36203 15.571 1.51663 15.8388 1.70183 16.1595L1.72288 16.196C1.90806 16.5168 2.06266 16.7845 2.20458 16.9957C2.35232 17.2155 2.51078 17.4123 2.71859 17.5717C3.20078 17.9417 3.8102 18.105 4.41279 18.0257C4.67247 17.9915 4.90807 17.9003 5.14593 17.7838C5.37443 17.6719 5.6422 17.5173 5.96296 17.3321L8.37569 15.8407C9.00984 15.4745 9.18166 15.3881 9.35843 15.3648C9.53519 15.3416 9.72353 15.3806 10.4308 15.5701L14.1221 16.5592L14.1865 16.5766C14.4484 16.6476 14.7312 16.7242 15.0233 16.6857C15.3155 16.6473 15.5687 16.5001 15.8034 16.3637L15.8611 16.3302L16.0172 16.2401C16.3296 16.0598 16.616 15.8945 16.8309 15.7287C17.0675 15.5461 17.2918 15.3084 17.386 14.9566C17.4803 14.6048 17.4049 14.2868 17.2913 14.0103C17.1881 13.7593 17.0227 13.4729 16.8423 13.1606L11.8051 4.43573ZM10.2 4.27547L10.198 4.27428L10.1957 4.27431C10.1938 4.27438 10.1908 4.2746 10.1863 4.2752C10.1668 4.27781 10.1255 4.28692 10.0505 4.31779C9.88657 4.38514 9.67373 4.5065 9.31822 4.71175L9.1944 4.78324C9.17443 4.79476 9.1556 4.80564 9.13782 4.81594L15.1795 15.2804C15.1973 15.2701 15.2161 15.2592 15.2361 15.2477L15.3599 15.1762C15.7154 14.971 15.9269 14.8473 16.0672 14.7391C16.1315 14.6895 16.16 14.6583 16.172 14.6427C16.1747 14.6391 16.1765 14.6366 16.1774 14.6351L16.1786 14.6331L16.1786 14.6307C16.1785 14.6289 16.1783 14.6258 16.1777 14.6213C16.1751 14.6019 16.166 14.5606 16.1351 14.4855C16.0678 14.3216 15.9464 14.1088 15.7412 13.7533L10.7412 5.09302C10.5359 4.73752 10.4123 4.526 10.304 4.38573C10.2544 4.32145 10.2232 4.29292 10.2077 4.28094C10.2041 4.27816 10.2015 4.27644 10.2 4.27547ZM13.655 15.1399L8.49721 6.20637L7.69398 9.20432C7.59927 9.55913 7.51702 9.86727 7.39912 10.1378L9.70127 14.1252C9.99446 14.1583 10.3024 14.2412 10.657 14.3366L13.655 15.1399ZM8.41071 14.3899L6.52461 11.1231C6.35542 11.2341 6.16787 11.3422 5.96296 11.4602L3.48118 12.9915C3.13751 13.1899 2.90704 13.3233 2.73548 13.4386C2.5686 13.5508 2.49629 13.6209 2.45392 13.6761C2.28574 13.8953 2.21151 14.1723 2.24757 14.4462C2.25666 14.5152 2.28422 14.6121 2.37267 14.7926C2.4636 14.9783 2.59647 15.2091 2.79489 15.5528C2.9933 15.8964 3.12676 16.1269 3.24206 16.2985C3.35421 16.4653 3.42433 16.5377 3.47954 16.58C3.69871 16.7482 3.97572 16.8224 4.24963 16.7864C4.31862 16.7773 4.4155 16.7497 4.59607 16.6613C4.7817 16.5703 5.01251 16.4375 5.35618 16.2391L7.83788 14.7077C8.04256 14.5893 8.22992 14.4809 8.41071 14.3899Z" fill="#66605C"/>
</g>
<g id="Vector_2">
<path d="M18.4202 6.04437C18.5878 6.34615 18.479 6.72663 18.1773 6.8942L15.9916 8.10789C15.6899 8.27546 15.3094 8.16667 15.1418 7.8649C14.9742 7.56313 15.083 7.18265 15.3848 7.01507L17.5704 5.80139C17.8722 5.63381 18.2527 5.7426 18.4202 6.04437Z" fill="#66605C"/>
<path d="M15.3188 2.55292C15.4137 2.22104 15.2216 1.87507 14.8897 1.78018C14.5579 1.68529 14.2119 1.8774 14.117 2.20928L13.469 4.47549C13.3742 4.80737 13.5663 5.15333 13.8981 5.24823C14.23 5.34312 14.576 5.151 14.6709 4.81912L15.3188 2.55292Z" fill="#66605C"/>
<path d="M20.1736 11.2954C20.2685 10.9636 20.0764 10.6176 19.7445 10.5227L17.4783 9.87473C17.1464 9.77984 16.8004 9.97195 16.7055 10.3038C16.6106 10.6357 16.8028 10.9817 17.1346 11.0766L19.4008 11.7245C19.7327 11.8194 20.0787 11.6273 20.1736 11.2954Z" fill="#66605C"/>
</g>
</g>
<defs>
<clipPath id="clip0_1760_77971">
<rect width="20" height="20" fill="white" transform="translate(0.625)"/>
</clipPath>
</defs>
</svg>
