<svg width="21" height="20" viewBox="0 0 21 20" fill="none" xmlns="http://www.w3.org/2000/svg">
<g id="Outline / Essentional, UI / Box">
<path id="Vector" fill-rule="evenodd" clip-rule="evenodd" d="M10.6243 1.04175C10.1204 1.04175 9.65639 1.16699 9.14833 1.3771C8.65775 1.57998 8.08795 1.87901 7.37843 2.25135L5.6555 3.15551C4.7847 3.61247 4.08782 3.97817 3.54974 4.33751C2.9923 4.70978 2.56295 5.10176 2.25028 5.63273C1.93867 6.16192 1.79848 6.73495 1.73126 7.41735C1.666 8.07973 1.66601 8.89437 1.66602 9.91889V10.0813C1.66601 11.1058 1.666 11.9204 1.73126 12.5828C1.79848 13.2652 1.93867 13.8382 2.25028 14.3674C2.56295 14.8984 2.9923 15.2904 3.54974 15.6627C4.08781 16.022 4.78469 16.3877 5.65549 16.8447L7.37836 17.7488C8.08791 18.1211 8.65773 18.4202 9.14833 18.6231C9.65639 18.8332 10.1204 18.9584 10.6243 18.9584C11.1283 18.9584 11.5923 18.8332 12.1004 18.6231C12.5909 18.4202 13.1607 18.1212 13.8702 17.7488L15.5932 16.8447C16.464 16.3877 17.1609 16.022 17.699 15.6627C18.2564 15.2904 18.6858 14.8984 18.9984 14.3674C19.31 13.8382 19.4502 13.2652 19.5174 12.5828C19.5827 11.9204 19.5827 11.1058 19.5827 10.0813V9.91887C19.5827 8.89437 19.5827 8.07973 19.5174 7.41735C19.4502 6.73495 19.31 6.16192 18.9984 5.63273C18.6858 5.10176 18.2564 4.70978 17.699 4.33751C17.1609 3.97817 16.464 3.61247 15.5932 3.1555L13.8703 2.25136C13.1608 1.87901 12.591 1.57999 12.1004 1.3771C11.5923 1.16699 11.1283 1.04175 10.6243 1.04175ZM7.93335 3.37181C8.67478 2.98273 9.19435 2.71074 9.62604 2.53222C10.0462 2.35845 10.3414 2.29175 10.6243 2.29175C10.9073 2.29175 11.2025 2.35845 11.6227 2.53222C12.0543 2.71075 12.5739 2.98273 13.3154 3.37181L14.982 4.24644C15.8901 4.72298 16.5281 5.05868 17.0048 5.37702C17.2399 5.53407 17.4247 5.6799 17.5739 5.82653L14.7983 7.21432L7.71514 3.48632L7.93335 3.37181ZM6.41157 4.17041L6.26669 4.24644C5.3586 4.72298 4.72063 5.05868 4.24395 5.37702C4.00878 5.53407 3.82398 5.6799 3.6748 5.82653L10.6243 9.30131L13.422 7.90249L6.58325 4.30315C6.51682 4.26819 6.45928 4.22294 6.41157 4.17041ZM3.07242 6.92289C3.03033 7.10112 2.99852 7.30352 2.97523 7.5399C2.91672 8.13391 2.91602 8.88709 2.91602 9.95134V10.0488C2.91602 11.1131 2.91672 11.8663 2.97523 12.4603C3.03247 13.0412 3.1412 13.4169 3.32741 13.7332C3.51258 14.0476 3.78041 14.3136 4.24395 14.6231C4.72063 14.9415 5.3586 15.2772 6.26669 15.7537L7.93335 16.6284C8.67478 17.0174 9.19435 17.2894 9.62604 17.4679C9.76235 17.5243 9.8855 17.5694 9.99935 17.6046V10.3864L3.07242 6.92289ZM11.2493 17.6046C11.3632 17.5694 11.4864 17.5243 11.6227 17.4679C12.0543 17.2894 12.5739 17.0174 13.3154 16.6284L14.982 15.7537C15.8901 15.2772 16.5281 14.9415 17.0048 14.6231C17.4683 14.3136 17.7361 14.0476 17.9213 13.7332C18.1075 13.4169 18.2162 13.0412 18.2735 12.4603C18.332 11.8663 18.3327 11.1131 18.3327 10.0488V9.95134C18.3327 8.88709 18.332 8.13391 18.2735 7.5399C18.2502 7.30352 18.2184 7.10112 18.1763 6.92288L15.416 8.30302V10.8334C15.416 11.1786 15.1362 11.4584 14.791 11.4584C14.4458 11.4584 14.166 11.1786 14.166 10.8334V8.92802L11.2493 10.3864V17.6046Z" fill="#66605C"/>
</g>
</svg>
