<svg width="21" height="20" viewBox="0 0 21 20" fill="none" xmlns="http://www.w3.org/2000/svg">
<g id="Outline / Settings, Fine Tuning / Widget 4">
<g id="Union">
<path fill-rule="evenodd" clip-rule="evenodd" d="M5.99899 1.45825H6.08565C6.83438 1.45823 7.45874 1.45821 7.95439 1.52485C8.47755 1.59518 8.94988 1.74991 9.32944 2.12947C9.709 2.50903 9.86372 2.98136 9.93406 3.50452C10.0007 4.00017 10.0007 4.62451 10.0007 5.37323V14.6266C10.0007 15.3753 10.0007 15.9997 9.93406 16.4953C9.86372 17.0185 9.709 17.4908 9.32944 17.8704C8.94988 18.2499 8.47755 18.4047 7.95439 18.475C7.45873 18.5416 6.83438 18.5416 6.08565 18.5416H5.99899C5.25026 18.5416 4.62591 18.5416 4.13025 18.475C3.60709 18.4047 3.13476 18.2499 2.7552 17.8704C2.37564 17.4908 2.22092 17.0185 2.15058 16.4953C2.08394 15.9997 2.08396 15.3753 2.08399 14.6266V5.37325C2.08396 4.62453 2.08394 4.00017 2.15058 3.50452C2.22092 2.98136 2.37564 2.50903 2.7552 2.12947C3.13476 1.74991 3.60709 1.59518 4.13025 1.52485C4.6259 1.45821 5.25026 1.45823 5.99899 1.45825ZM4.29681 2.7637C3.91226 2.8154 3.74768 2.90475 3.63908 3.01335C3.53049 3.12195 3.44113 3.28653 3.38943 3.67108C3.33531 4.07361 3.33399 4.61325 3.33399 5.41659V14.5833C3.33399 15.3866 3.33531 15.9262 3.38943 16.3288C3.44113 16.7133 3.53049 16.8779 3.63908 16.9865C3.74768 17.0951 3.91226 17.1844 4.29681 17.2361C4.69934 17.2903 5.23898 17.2916 6.04232 17.2916C6.84566 17.2916 7.3853 17.2903 7.78783 17.2361C8.17238 17.1844 8.33696 17.0951 8.44556 16.9865C8.55415 16.8779 8.64351 16.7133 8.69521 16.3288C8.74933 15.9262 8.75065 15.3866 8.75065 14.5833V5.41659C8.75065 4.61325 8.74933 4.07361 8.69521 3.67108C8.64351 3.28653 8.55415 3.12195 8.44556 3.01335C8.33696 2.90475 8.17238 2.8154 7.78783 2.7637C7.3853 2.70958 6.84566 2.70825 6.04232 2.70825C5.23898 2.70825 4.69934 2.70958 4.29681 2.7637Z" fill="#66605C"/>
<path fill-rule="evenodd" clip-rule="evenodd" d="M15.1657 8.95825H15.2523C16.0011 8.95823 16.6254 8.95821 17.1211 9.02485C17.6442 9.09519 18.1166 9.24991 18.4961 9.62947C18.8757 10.009 19.0304 10.4814 19.1007 11.0045C19.1674 11.5002 19.1673 12.1245 19.1673 12.8732V14.6266C19.1673 15.3753 19.1674 15.9997 19.1007 16.4953C19.0304 17.0185 18.8757 17.4908 18.4961 17.8704C18.1166 18.2499 17.6442 18.4047 17.1211 18.475C16.6254 18.5416 16.0011 18.5416 15.2524 18.5416H15.1657C14.4169 18.5416 13.7926 18.5416 13.2969 18.475C12.7738 18.4047 12.3014 18.2499 11.9219 17.8704C11.5423 17.4908 11.3876 17.0185 11.3172 16.4953C11.2506 15.9997 11.2506 15.3753 11.2507 14.6266V12.8733C11.2506 12.1245 11.2506 11.5002 11.3172 11.0045C11.3876 10.4814 11.5423 10.009 11.9219 9.62947C12.3014 9.24991 12.7738 9.09519 13.2969 9.02485C13.7926 8.95821 14.4169 8.95823 15.1657 8.95825ZM13.4635 10.2637C13.0789 10.3154 12.9143 10.4048 12.8058 10.5134C12.6972 10.6219 12.6078 10.7865 12.5561 11.1711C12.502 11.5736 12.5007 12.1132 12.5007 12.9166V14.5833C12.5007 15.3866 12.502 15.9262 12.5561 16.3288C12.6078 16.7133 12.6972 16.8779 12.8058 16.9865C12.9143 17.0951 13.0789 17.1844 13.4635 17.2361C13.866 17.2903 14.4056 17.2916 15.209 17.2916C16.0123 17.2916 16.552 17.2903 16.9545 17.2361C17.339 17.1844 17.5036 17.0951 17.6122 16.9865C17.7208 16.8779 17.8102 16.7133 17.8619 16.3288C17.916 15.9262 17.9173 15.3866 17.9173 14.5833V12.9166C17.9173 12.1132 17.916 11.5736 17.8619 11.1711C17.8102 10.7865 17.7208 10.6219 17.6122 10.5134C17.5036 10.4048 17.339 10.3154 16.9545 10.2637C16.552 10.2096 16.0123 10.2083 15.209 10.2083C14.4056 10.2083 13.866 10.2096 13.4635 10.2637Z" fill="#66605C"/>
<path fill-rule="evenodd" clip-rule="evenodd" d="M14.3546 1.45825C13.9843 1.45825 13.675 1.45824 13.4212 1.47556C13.1569 1.49359 12.9073 1.53246 12.6653 1.6327C12.1038 1.86529 11.6577 2.31142 11.4251 2.87294C11.3249 3.11493 11.286 3.36453 11.268 3.62878C11.2506 3.88263 11.2506 4.19183 11.2507 4.56221V4.6043C11.2506 4.97468 11.2506 5.28388 11.268 5.53773C11.286 5.80198 11.3249 6.05158 11.4251 6.29357C11.6577 6.85509 12.1038 7.30122 12.6653 7.53381C12.9073 7.63405 13.1569 7.67292 13.4212 7.69095C13.675 7.70827 13.9842 7.70826 14.3546 7.70826H16.0634C16.4338 7.70826 16.743 7.70827 16.9968 7.69095C17.261 7.67292 17.5106 7.63405 17.7526 7.53381C18.3142 7.30122 18.7603 6.85509 18.9929 6.29357C19.0931 6.05158 19.132 5.80198 19.15 5.53773C19.1673 5.28388 19.1673 4.97469 19.1673 4.6043V4.56221C19.1673 4.19182 19.1673 3.88263 19.15 3.62878C19.132 3.36453 19.0931 3.11493 18.9929 2.87294C18.7603 2.31142 18.3142 1.86529 17.7526 1.6327C17.5106 1.53246 17.261 1.49359 16.9968 1.47556C16.743 1.45824 16.4338 1.45825 16.0634 1.45825H14.3546ZM13.1437 2.78755C13.208 2.76092 13.3057 2.73635 13.5063 2.72266C13.7125 2.70859 13.9788 2.70825 14.3757 2.70825H16.0423C16.4392 2.70825 16.7055 2.70859 16.9117 2.72266C17.1123 2.73635 17.21 2.76092 17.2743 2.78755C17.5295 2.89327 17.7323 3.09606 17.838 3.35129C17.8647 3.41559 17.8892 3.51327 17.9029 3.71387C17.917 3.92009 17.9173 4.18642 17.9173 4.58325C17.9173 4.98009 17.917 5.24642 17.9029 5.45264C17.8892 5.65324 17.8647 5.75092 17.838 5.81522C17.7323 6.07045 17.5295 6.27324 17.2743 6.37896C17.21 6.40559 17.1123 6.43016 16.9117 6.44385C16.7055 6.45792 16.4392 6.45825 16.0423 6.45825H14.3757C13.9788 6.45825 13.7125 6.45792 13.5063 6.44385C13.3057 6.43016 13.208 6.40559 13.1437 6.37896C12.8885 6.27324 12.6857 6.07045 12.5799 5.81522C12.5533 5.75092 12.5288 5.65324 12.5151 5.45264C12.501 5.24642 12.5007 4.98009 12.5007 4.58325C12.5007 4.18642 12.501 3.92009 12.5151 3.71387C12.5288 3.51327 12.5533 3.41559 12.5799 3.35129C12.6857 3.09606 12.8885 2.89327 13.1437 2.78755Z" fill="#66605C"/>
</g>
</g>
</svg>
