<svg width="21" height="20" viewBox="0 0 21 20" fill="none" xmlns="http://www.w3.org/2000/svg">
<g id="Outline / Transport, Parts, Service / Truck">
<path id="Vector" d="M3.43873 3.33747C2.80205 3.52675 2.33056 3.93285 2.04492 4.53511C1.8109 5.02725 1.81778 4.85173 1.82811 9.28783L1.83843 13.2869L1.93479 13.5691C2.16537 14.2539 2.68848 14.7736 3.38711 15.0111C3.62801 15.0937 3.72782 15.1074 4.21995 15.1212L4.77748 15.1384L4.84975 15.3346C5.08721 15.9644 5.73765 16.5356 6.40187 16.694C6.68407 16.7593 7.22094 16.7593 7.4825 16.694C7.78535 16.6182 8.2121 16.3945 8.43235 16.1984C8.66293 15.9919 8.91416 15.6374 9.03117 15.3518L9.11377 15.1453H10.6315H12.1492L12.2318 15.3518C12.3488 15.6374 12.6 15.9919 12.8306 16.1949C13.0612 16.398 13.4879 16.6217 13.7977 16.6974C14.1108 16.7765 14.7303 16.749 15.0366 16.6458C15.6492 16.4324 16.1895 15.9162 16.4166 15.3277L16.4889 15.135L17.4078 15.1212C18.2579 15.1074 18.337 15.1005 18.5125 15.0317C18.898 14.8768 19.1871 14.5878 19.3454 14.1989C19.4245 14.0096 19.4245 14.0061 19.4245 12.134C19.4245 10.2962 19.4211 10.2515 19.3454 9.98302C19.2146 9.51153 19.0356 9.2018 18.0032 7.65312C16.6163 5.57445 16.8434 5.71899 14.9815 5.70523L13.7047 5.6949L13.6841 5.36108C13.6531 4.7657 13.4501 4.3183 13.0164 3.88467C12.8306 3.70227 12.6964 3.60247 12.483 3.49922C11.953 3.24111 12.249 3.25487 7.74061 3.25832H3.69684L3.43873 3.33747ZM11.8567 4.55576C12.0769 4.65557 12.2937 4.87238 12.3901 5.09608L12.4658 5.26815L12.4589 9.23965L12.4555 13.2111L12.3247 13.4727C12.2524 13.6172 12.1836 13.7687 12.1733 13.8134L12.1526 13.8891H10.6349C9.21702 13.8891 9.11377 13.8857 9.09656 13.8272C9.08624 13.7962 9.01397 13.6379 8.93481 13.4761C8.72488 13.0494 8.38073 12.7121 7.94366 12.5022C7.7647 12.4162 7.53412 12.3301 7.43088 12.306C7.15555 12.251 6.64621 12.2579 6.39154 12.3232C5.71012 12.4988 5.07689 13.0563 4.84286 13.6895L4.77059 13.8891H4.35073C3.78288 13.8891 3.62457 13.8409 3.3699 13.5863C3.03607 13.249 3.06016 13.6104 3.06016 9.1605V5.26815L3.15653 5.06166C3.29763 4.76914 3.53853 4.56953 3.84139 4.49726C3.9171 4.48005 5.63441 4.46628 7.82665 4.46973L11.6811 4.47661L11.8567 4.55576ZM16.8503 8.14181C17.2873 8.7957 17.6487 9.33946 17.6487 9.35322C17.6521 9.37043 16.7711 9.38075 15.6905 9.38075H13.7288V8.15902V6.93728L14.8921 6.94417L16.0518 6.95449L16.8503 8.14181ZM18.2028 12.1925C18.2028 13.6069 18.1959 13.7687 18.1443 13.8272C18.0927 13.8822 18.0204 13.8891 17.2908 13.8891H16.4924L16.4304 13.7239C16.2274 13.1802 15.7456 12.6674 15.2259 12.4437C14.8439 12.2785 14.221 12.2166 13.8596 12.3026L13.7288 12.3336V11.4766V10.6197H15.9658H18.2028V12.1925ZM7.35172 13.5794C7.56854 13.6758 7.7647 13.865 7.8645 14.0784C7.92645 14.2126 7.9471 14.309 7.9471 14.5086C7.9471 14.7082 7.92645 14.8046 7.8645 14.9388C7.56165 15.5789 6.71848 15.7234 6.21602 15.221C5.96135 14.9663 5.86155 14.5774 5.96135 14.2298C6.13687 13.6276 6.78043 13.3282 7.35172 13.5794ZM14.7578 13.5863C14.9574 13.6826 15.1639 13.8891 15.2534 14.0922C15.3567 14.3124 15.3567 14.7048 15.2534 14.925C14.9643 15.5651 14.1212 15.7234 13.6118 15.2382C13.4088 15.042 13.3158 14.8183 13.3158 14.5086C13.3158 14.3228 13.3365 14.2057 13.3881 14.0956C13.512 13.8237 13.7942 13.5828 14.0902 13.5071C14.2519 13.4624 14.5858 13.5037 14.7578 13.5863Z" fill="#66605C"/>
</g>
</svg>
