<svg width="21" height="20" viewBox="0 0 21 20" fill="none" xmlns="http://www.w3.org/2000/svg">
<g id="Outline / Building, Infrastructure / Buildings">
<path id="Vector (Stroke)" fill-rule="evenodd" clip-rule="evenodd" d="M13.081 1.0415H14.8343C15.5831 1.04148 16.2074 1.04146 16.7031 1.1081C17.2262 1.17844 17.6986 1.33316 18.0781 1.71272C18.4577 2.09228 18.6124 2.56461 18.6828 3.08777C18.7494 3.58343 18.7494 4.20778 18.7493 4.95651V17.7082H18.9577C19.3029 17.7082 19.5827 17.988 19.5827 18.3332C19.5827 18.6783 19.3029 18.9582 18.9577 18.9582H2.29102C1.94584 18.9582 1.66602 18.6783 1.66602 18.3332C1.66602 17.988 1.94584 17.7082 2.29102 17.7082H2.49935L2.49935 7.45651C2.49932 6.70777 2.4993 6.08342 2.56594 5.58777C2.63628 5.06461 2.791 4.59228 3.17056 4.21272C3.55012 3.83316 4.02245 3.67844 4.54562 3.6081C5.04127 3.54146 5.66562 3.54148 6.41435 3.5415L9.18934 3.54151C9.23222 2.81303 9.36651 2.18343 9.83723 1.71272C10.2168 1.33316 10.6891 1.17844 11.2123 1.1081C11.7079 1.04146 12.3323 1.04148 13.081 1.0415ZM9.79671 4.79151C9.79564 4.79151 9.79457 4.79151 9.7935 4.79151C9.79267 4.79151 9.79184 4.79151 9.79102 4.79151H6.45768C5.65434 4.79151 5.11471 4.79283 4.71218 4.84695C4.32762 4.89865 4.16304 4.98801 4.05445 5.0966C3.94585 5.2052 3.8565 5.36978 3.8048 5.75433C3.75068 6.15686 3.74935 6.6965 3.74935 7.49984V17.7082H7.49935V15.8332C7.49935 15.488 7.77917 15.2082 8.12435 15.2082C8.46953 15.2082 8.74935 15.488 8.74935 15.8332V17.7082H12.4993V7.49984C12.4993 6.6965 12.498 6.15686 12.4439 5.75433C12.3922 5.36978 12.3028 5.2052 12.1943 5.0966C12.0857 4.98801 11.9211 4.89865 11.5365 4.84695C11.1349 4.79296 10.5969 4.79151 9.79671 4.79151ZM13.7493 17.7082L13.7494 7.45651C13.7494 6.70778 13.7494 6.08343 13.6828 5.58777C13.6124 5.06461 13.4577 4.59228 13.0781 4.21272C12.6986 3.83316 12.2262 3.67844 11.7031 3.6081C11.3486 3.56044 10.9283 3.54688 10.4438 3.54303C10.4856 2.96 10.5774 2.74036 10.7211 2.5966C10.8297 2.48801 10.9943 2.39865 11.3788 2.34695C11.7814 2.29283 12.321 2.29151 13.1243 2.29151H14.791C15.5944 2.29151 16.134 2.29283 16.5365 2.34695C16.9211 2.39865 17.0857 2.48801 17.1943 2.5966C17.3028 2.7052 17.3922 2.86978 17.4439 3.25433C17.498 3.65686 17.4993 4.1965 17.4993 4.99984V17.7082H13.7493ZM4.99935 6.66651C4.99935 6.32133 5.27917 6.04151 5.62435 6.04151H10.6243C10.9695 6.04151 11.2493 6.32133 11.2493 6.66651C11.2493 7.01168 10.9695 7.29151 10.6243 7.29151H5.62435C5.27917 7.29151 4.99935 7.01168 4.99935 6.66651ZM4.99935 9.1665C4.99935 8.82133 5.27917 8.54151 5.62435 8.54151H10.6243C10.9695 8.54151 11.2493 8.82133 11.2493 9.1665C11.2493 9.51168 10.9695 9.7915 10.6243 9.7915H5.62435C5.27917 9.7915 4.99935 9.51168 4.99935 9.1665ZM4.99935 11.6665C4.99935 11.3213 5.27917 11.0415 5.62435 11.0415H10.6243C10.9695 11.0415 11.2493 11.3213 11.2493 11.6665C11.2493 12.0117 10.9695 12.2915 10.6243 12.2915H5.62435C5.27917 12.2915 4.99935 12.0117 4.99935 11.6665Z" fill="#66605C"/>
</g>
</svg>
