<svg width="20" height="21" viewBox="0 0 20 21" fill="none" xmlns="http://www.w3.org/2000/svg">
<g id="Outline / Map &#38; Location / Map Point">
<path id="Vector" fill-rule="evenodd" clip-rule="evenodd" d="M2.70801 8.95307C2.70801 4.87055 5.96218 1.54199 9.99967 1.54199C14.0372 1.54199 17.2913 4.87055 17.2913 8.95307C17.2913 10.924 16.7297 13.0402 15.7367 14.8685C14.745 16.6946 13.296 18.2813 11.4834 19.1286C10.5418 19.5687 9.45754 19.5687 8.51592 19.1286C6.70332 18.2813 5.25436 16.6946 4.26264 14.8685C3.2697 13.0402 2.70801 10.924 2.70801 8.95307ZM9.99967 2.79199C6.67337 2.79199 3.95801 5.53989 3.95801 8.95307C3.95801 10.7006 4.4602 12.6132 5.36109 14.272C6.26321 15.933 7.53802 17.2917 9.04521 17.9962C9.65138 18.2795 10.348 18.2795 10.9541 17.9962C12.4613 17.2917 13.7361 15.933 14.6383 14.272C15.5391 12.6132 16.0413 10.7006 16.0413 8.95307C16.0413 5.53989 13.326 2.79199 9.99967 2.79199ZM9.99967 6.95866C8.96414 6.95866 8.12467 7.79813 8.12467 8.83366C8.12467 9.86919 8.96414 10.7087 9.99967 10.7087C11.0352 10.7087 11.8747 9.86919 11.8747 8.83366C11.8747 7.79813 11.0352 6.95866 9.99967 6.95866ZM6.87467 8.83366C6.87467 7.10777 8.27378 5.70866 9.99967 5.70866C11.7256 5.70866 13.1247 7.10777 13.1247 8.83366C13.1247 10.5595 11.7256 11.9587 9.99967 11.9587C8.27378 11.9587 6.87467 10.5595 6.87467 8.83366Z" fill="black"/>
</g>
</svg>
