<svg width="17" height="17" viewBox="0 0 17 17" fill="none" xmlns="http://www.w3.org/2000/svg">
<g id="Outline / School / Bookmark">
<g id="Vector">
<path d="M6.625 4.0651C6.34886 4.0651 6.125 4.28896 6.125 4.5651C6.125 4.84125 6.34886 5.0651 6.625 5.0651H10.625C10.9011 5.0651 11.125 4.84125 11.125 4.5651C11.125 4.28896 10.9011 4.0651 10.625 4.0651H6.625Z" fill="black"/>
<path fill-rule="evenodd" clip-rule="evenodd" d="M8.58667 1.39844C7.20496 1.39843 6.11644 1.39842 5.26585 1.51402C4.39248 1.63271 3.69573 1.88156 3.14823 2.435C2.60146 2.98768 2.35628 3.68978 2.2392 4.57004C2.12498 5.42878 2.12499 6.52818 2.125 7.92582V11.3245C2.12499 12.3295 2.12499 13.1252 2.18901 13.7243C2.25227 14.3164 2.38798 14.8505 2.77556 15.2076C3.0865 15.4942 3.47974 15.6749 3.89943 15.7229C4.42441 15.783 4.91459 15.5323 5.39746 15.1903C5.88608 14.8441 6.47884 14.3198 7.22669 13.6584L7.25103 13.6368C7.59775 13.3302 7.83248 13.1232 8.02833 12.98C8.21761 12.8416 8.33318 12.7916 8.43059 12.772C8.55895 12.7461 8.69105 12.7461 8.81941 12.772C8.91682 12.7916 9.03239 12.8416 9.22167 12.98C9.41752 13.1232 9.65226 13.3302 9.99897 13.6368L10.0233 13.6584C10.7712 14.3199 11.3639 14.8441 11.8525 15.1902C12.3354 15.5323 12.8256 15.783 13.3506 15.7229C13.7703 15.6749 14.1635 15.4942 14.4744 15.2076C14.862 14.8505 14.9977 14.3164 15.061 13.7243C15.125 13.1252 15.125 12.3295 15.125 11.3245V7.9258C15.125 6.52819 15.125 5.42877 15.0108 4.57004C14.8937 3.68978 14.6485 2.98768 14.1018 2.435C13.5543 1.88156 12.8575 1.63271 11.9841 1.51402C11.1336 1.39842 10.045 1.39843 8.66333 1.39844H8.58667ZM3.85913 3.13828C4.19031 2.80352 4.64001 2.60826 5.40052 2.50491C6.17597 2.39952 7.1965 2.39844 8.625 2.39844C10.0535 2.39844 11.074 2.39952 11.8495 2.50491C12.61 2.60826 13.0597 2.80352 13.3909 3.13828C13.7228 3.47379 13.9169 3.93056 14.0195 4.70189C14.124 5.48705 14.125 6.51993 14.125 7.96345V11.2924C14.125 12.3366 14.1243 13.0786 14.0667 13.6181C14.0076 14.171 13.8986 14.3785 13.7968 14.4723C13.6409 14.6159 13.4449 14.7056 13.2369 14.7294C13.1038 14.7446 12.8807 14.6931 12.4306 14.3742C11.9915 14.0632 11.4391 13.5756 10.6615 12.8878L10.644 12.8724C10.3192 12.585 10.0498 12.3467 9.81194 12.1728C9.56328 11.991 9.31249 11.8512 9.01688 11.7917C8.75818 11.7396 8.49182 11.7396 8.23312 11.7917C7.93751 11.8512 7.68672 11.991 7.43807 12.1728C7.20022 12.3467 6.93081 12.585 6.60597 12.8724L6.58851 12.8878C5.81092 13.5756 5.25851 14.0632 4.81943 14.3742C4.3693 14.6931 4.14621 14.7446 4.01312 14.7294C3.80512 14.7056 3.60912 14.6159 3.45325 14.4723C3.35142 14.3785 3.24243 14.171 3.18335 13.6181C3.12569 13.0786 3.125 12.3366 3.125 11.2924V7.96345C3.125 6.51993 3.12604 5.48705 3.23047 4.70189C3.33306 3.93056 3.52722 3.47379 3.85913 3.13828Z" fill="black"/>
</g>
</g>
</svg>
