<svg width="20" height="21" viewBox="0 0 20 21" fill="none" xmlns="http://www.w3.org/2000/svg">
<g id="Outline / Transport, Parts, Service / Truck">
<path id="Vector" d="M2.81471 3.83747C2.17803 4.02675 1.70654 4.43285 1.4209 5.03511C1.18687 5.52725 1.19376 5.35173 1.20408 9.78783L1.21441 13.7869L1.31077 14.0691C1.54135 14.7539 2.06446 15.2736 2.76308 15.5111C3.00399 15.5937 3.10379 15.6074 3.59593 15.6212L4.15345 15.6384L4.22572 15.8346C4.46319 16.4644 5.11363 17.0356 5.77784 17.194C6.06005 17.2593 6.59692 17.2593 6.85847 17.194C7.16133 17.1182 7.58807 16.8945 7.80833 16.6984C8.03891 16.4919 8.29014 16.1374 8.40715 15.8518L8.48975 15.6453H10.0075H11.5252L11.6078 15.8518C11.7248 16.1374 11.976 16.4919 12.2066 16.6949C12.4372 16.898 12.8639 17.1217 13.1736 17.1974C13.4868 17.2765 14.1063 17.249 14.4126 17.1458C15.0252 16.9324 15.5655 16.4162 15.7926 15.8277L15.8649 15.635L16.7838 15.6212C17.6338 15.6074 17.713 15.6005 17.8885 15.5317C18.2739 15.3768 18.563 15.0878 18.7213 14.6989C18.8005 14.5096 18.8005 14.5061 18.8005 12.634C18.8005 10.7962 18.7971 10.7515 18.7213 10.483C18.5906 10.0115 18.4116 9.70179 17.3792 8.15312C15.9922 6.07445 16.2194 6.21899 14.3575 6.20523L13.0807 6.1949L13.0601 5.86108C13.0291 5.2657 12.826 4.8183 12.3924 4.38467C12.2066 4.20227 12.0724 4.10247 11.859 3.99922C11.329 3.74111 11.625 3.75487 7.11659 3.75832H3.07282L2.81471 3.83747ZM11.2326 5.05576C11.4529 5.15557 11.6697 5.37238 11.7661 5.59608L11.8418 5.76815L11.8349 9.73965L11.8314 13.7111L11.7007 13.9727C11.6284 14.1172 11.5596 14.2687 11.5492 14.3134L11.5286 14.3891H10.0109C8.59299 14.3891 8.48975 14.3857 8.47254 14.3272C8.46222 14.2962 8.38994 14.1379 8.31079 13.9761C8.10086 13.5494 7.75671 13.2121 7.31964 13.0022C7.14068 12.9162 6.9101 12.8301 6.80685 12.806C6.53153 12.751 6.02219 12.7579 5.76752 12.8232C5.0861 12.9988 4.45286 13.5563 4.21884 14.1895L4.14657 14.3891H3.7267C3.15886 14.3891 3.00055 14.3409 2.74588 14.0863C2.41205 13.749 2.43614 14.1104 2.43614 9.6605V5.76815L2.5325 5.56166C2.6736 5.26914 2.91451 5.06953 3.21736 4.99726C3.29308 4.98005 5.01039 4.96628 7.20262 4.96973L11.0571 4.97661L11.2326 5.05576ZM16.2263 8.64181C16.6633 9.2957 17.0247 9.83946 17.0247 9.85322C17.0281 9.87043 16.1471 9.88075 15.0665 9.88075H13.1048V8.65902V7.43728L14.268 7.44417L15.4278 7.45449L16.2263 8.64181ZM17.5788 12.6925C17.5788 14.1069 17.5719 14.2687 17.5203 14.3272C17.4686 14.3822 17.3964 14.3891 16.6668 14.3891H15.8683L15.8064 14.2239C15.6033 13.6802 15.1215 13.1674 14.6019 12.9437C14.2199 12.7785 13.5969 12.7166 13.2356 12.8026L13.1048 12.8336V11.9766V11.1197H15.3418H17.5788V12.6925ZM6.7277 14.0794C6.94451 14.1758 7.14068 14.365 7.24048 14.5784C7.30243 14.7126 7.32308 14.809 7.32308 15.0086C7.32308 15.2082 7.30243 15.3046 7.24048 15.4388C6.93763 16.0789 6.09446 16.2234 5.592 15.721C5.33733 15.4663 5.23753 15.0774 5.33733 14.7298C5.51285 14.1276 6.15641 13.8282 6.7277 14.0794ZM14.1338 14.0863C14.3334 14.1826 14.5399 14.3891 14.6294 14.5922C14.7326 14.8124 14.7326 15.2048 14.6294 15.425C14.3403 16.0651 13.4971 16.2234 12.9878 15.7382C12.7847 15.542 12.6918 15.3183 12.6918 15.0086C12.6918 14.8228 12.7125 14.7057 12.7641 14.5956C12.888 14.3237 13.1702 14.0828 13.4662 14.0071C13.6279 13.9624 13.9617 14.0037 14.1338 14.0863Z" fill="black"/>
</g>
</svg>
