<svg width="20" height="20" viewBox="0 0 20 20" fill="none" xmlns="http://www.w3.org/2000/svg">
<g id="Outline / Map &#38; Location / Global">
<path id="Vector" fill-rule="evenodd" clip-rule="evenodd" d="M7.67207 2.65155C7.46196 2.71812 7.25447 2.79377 7.05017 2.87839C6.11495 3.26577 5.26519 3.83356 4.54941 4.54934C3.83362 5.26513 3.26583 6.11489 2.87845 7.05011C2.57102 7.79231 2.382 8.57679 2.31707 9.37496H6.0508C6.07747 8.46171 6.16251 7.56171 6.30383 6.70877C6.47711 5.66294 6.73312 4.69924 7.0627 3.87528C7.24264 3.42543 7.44594 3.01364 7.67207 2.65155ZM10 1.04163C8.8236 1.04163 7.65869 1.27334 6.57182 1.72354C5.48494 2.17374 4.49738 2.8336 3.66552 3.66546C2.83366 4.49732 2.1738 5.48488 1.7236 6.57175C1.2734 7.65863 1.04169 8.82353 1.04169 9.99996C1.04169 11.1764 1.2734 12.3413 1.7236 13.4282C2.1738 14.515 2.83366 15.5026 3.66552 16.3345C4.49738 17.1663 5.48494 17.8262 6.57181 18.2764C7.65869 18.7266 8.8236 18.9583 10 18.9583C11.1764 18.9583 12.3414 18.7266 13.4282 18.2764C14.5151 17.8262 15.5027 17.1663 16.3345 16.3345C17.1664 15.5026 17.8262 14.515 18.2764 13.4282C18.7266 12.3413 18.9584 11.1764 18.9584 9.99996C18.9584 8.82353 18.7266 7.65863 18.2764 6.57176C17.8262 5.48488 17.1664 4.49732 16.3345 3.66546C15.5027 2.8336 14.5151 2.17374 13.4282 1.72354C12.3414 1.27334 11.1764 1.04163 10 1.04163ZM10 2.29163C9.78231 2.29163 9.50105 2.39645 9.174 2.73512C8.84453 3.0763 8.5147 3.61101 8.2233 4.33952C7.93382 5.06321 7.69877 5.93682 7.53702 6.91309C7.40724 7.69637 7.32766 8.52757 7.30137 9.37496L12.6987 9.37496C12.6724 8.52757 12.5928 7.69637 12.463 6.91309C12.3013 5.93682 12.0662 5.06321 11.7767 4.33952C11.4853 3.61101 11.1555 3.0763 10.826 2.73512C10.499 2.39645 10.2177 2.29163 10 2.29163ZM13.9492 9.37496C13.9226 8.46171 13.8375 7.56171 13.6962 6.70877C13.5229 5.66295 13.2669 4.69924 12.9373 3.87528C12.7574 3.42543 12.5541 3.01364 12.328 2.65155C12.5381 2.71811 12.7456 2.79377 12.9499 2.87839C13.8851 3.26577 14.7349 3.83356 15.4506 4.54935C16.1664 5.26513 16.7342 6.11489 17.1216 7.05011C17.429 7.79231 17.618 8.57679 17.683 9.37496H13.9492ZM12.6987 10.625L7.30137 10.625C7.32766 11.4724 7.40724 12.3036 7.53702 13.0868C7.69877 14.0631 7.93382 14.9367 8.2233 15.6604C8.5147 16.3889 8.84453 16.9236 9.174 17.2648C9.50105 17.6035 9.78231 17.7083 10 17.7083C10.2177 17.7083 10.499 17.6035 10.826 17.2648C11.1555 16.9236 11.4853 16.3889 11.7767 15.6604C12.0662 14.9367 12.3013 14.0631 12.463 13.0868C12.5928 12.3036 12.6724 11.4724 12.6987 10.625ZM12.328 17.3484C12.5541 16.9863 12.7574 16.5745 12.9373 16.1246C13.2669 15.3007 13.5229 14.337 13.6962 13.2911C13.8375 12.4382 13.9226 11.5382 13.9492 10.625H17.683C17.618 11.4231 17.429 12.2076 17.1216 12.9498C16.7342 13.885 16.1664 14.7348 15.4506 15.4506C14.7349 16.1664 13.8851 16.7342 12.9499 17.1215C12.7456 17.2062 12.5381 17.2818 12.328 17.3484ZM7.67207 17.3484C7.44594 16.9863 7.24264 16.5745 7.0627 16.1246C6.73312 15.3007 6.47711 14.337 6.30383 13.2911C6.16251 12.4382 6.07747 11.5382 6.0508 10.625H2.31707C2.382 11.4231 2.57102 12.2076 2.87845 12.9498C3.26583 13.885 3.83362 14.7348 4.54941 15.4506C5.26519 16.1664 6.11495 16.7342 7.05017 17.1215C7.25446 17.2062 7.46196 17.2818 7.67207 17.3484Z" fill="#66605C"/>
</g>
</svg>
